<svg width="28" height="28" viewBox="0 0 28 28" fill="none" xmlns="http://www.w3.org/2000/svg">
<path fill-rule="evenodd" clip-rule="evenodd" d="M5.60053 5.11281C5.60028 5.19996 5.57563 5.2853 5.52938 5.35916C5.48312 5.43302 5.41711 5.49246 5.33881 5.53073C5.26052 5.569 5.17307 5.58459 5.08637 5.57572C4.99967 5.56685 4.91719 5.53388 4.84826 5.48054L1.87466 3.16774C1.8188 3.12409 1.77362 3.06829 1.74254 3.00458C1.71146 2.94086 1.69531 2.8709 1.69531 2.80001C1.69531 2.72911 1.71146 2.65915 1.74254 2.59544C1.77362 2.53172 1.8188 2.47592 1.87466 2.43227L4.84826 0.117607C4.91744 0.0640747 5.00027 0.0310613 5.0873 0.022332C5.17433 0.0136027 5.26206 0.0295089 5.34049 0.0682364C5.41892 0.106964 5.48488 0.166954 5.53086 0.241363C5.57684 0.315772 5.60098 0.401606 5.60053 0.489073V1.87041H16.8005V0.48534C16.8005 0.397865 16.8251 0.312145 16.8714 0.237959C16.9178 0.163772 16.984 0.104106 17.0627 0.0657664C17.1413 0.0274269 17.2291 0.0119579 17.3161 0.021124C17.4031 0.0302901 17.4858 0.0637223 17.5547 0.117607L20.5264 2.43041C20.5823 2.47405 20.6274 2.52985 20.6585 2.59357C20.6896 2.65729 20.7057 2.72725 20.7057 2.79814C20.7057 2.86903 20.6896 2.93899 20.6585 3.00271C20.6274 3.06643 20.5823 3.12223 20.5264 3.16587L17.5547 5.48054C17.4856 5.53452 17.4028 5.56798 17.3156 5.57707C17.2285 5.58617 17.1405 5.57054 17.0618 5.53197C16.9831 5.49341 16.9169 5.43346 16.8707 5.359C16.8245 5.28454 16.8002 5.19857 16.8005 5.11094V3.73334H5.60053V5.11281ZM17.7339 9.33334H4.6672C4.41966 9.33334 4.18227 9.43167 4.00723 9.60671C3.8322 9.78174 3.73386 10.0191 3.73386 10.2667V23.3333C3.73386 23.5809 3.8322 23.8183 4.00723 23.9933C4.18227 24.1683 4.41966 24.2667 4.6672 24.2667H17.7339C17.9814 24.2667 18.2188 24.1683 18.3938 23.9933C18.5689 23.8183 18.6672 23.5809 18.6672 23.3333V10.2667C18.6672 10.0191 18.5689 9.78174 18.3938 9.60671C18.2188 9.43167 17.9814 9.33334 17.7339 9.33334ZM4.6672 7.46667C3.92459 7.46667 3.2124 7.76167 2.6873 8.28677C2.1622 8.81188 1.8672 9.52407 1.8672 10.2667V23.3333C1.8672 24.0759 2.1622 24.7881 2.6873 25.3132C3.2124 25.8383 3.92459 26.1333 4.6672 26.1333H17.7339C18.4765 26.1333 19.1887 25.8383 19.7138 25.3132C20.2389 24.7881 20.5339 24.0759 20.5339 23.3333V10.2667C20.5339 9.52407 20.2389 8.81188 19.7138 8.28677C19.1887 7.76167 18.4765 7.46667 17.7339 7.46667H4.6672ZM27.5133 11.2H26.1339V22.4H27.5133C27.6005 22.4003 27.6858 22.4249 27.7597 22.4712C27.8335 22.5174 27.893 22.5834 27.9313 22.6617C27.9695 22.74 27.9851 22.8275 27.9762 22.9142C27.9674 23.0009 27.9344 23.0833 27.8811 23.1523L25.5683 26.1259C25.5246 26.1817 25.4688 26.2269 25.4051 26.258C25.3414 26.2891 25.2714 26.3052 25.2005 26.3052C25.1296 26.3052 25.0597 26.2891 24.996 26.258C24.9322 26.2269 24.8764 26.1817 24.8328 26.1259L22.5181 23.1523C22.4647 23.0832 22.4317 23.0006 22.4229 22.9137C22.4141 22.8268 22.4299 22.7393 22.4684 22.6609C22.5069 22.5825 22.5666 22.5165 22.6407 22.4704C22.7148 22.4243 22.8004 22.3999 22.8877 22.4H24.2672V11.2H22.8877C22.8006 11.1998 22.7152 11.1751 22.6414 11.1289C22.5675 11.0826 22.5081 11.0166 22.4698 10.9383C22.4315 10.86 22.4159 10.7725 22.4248 10.6858C22.4337 10.5991 22.4667 10.5167 22.52 10.4477L24.8328 7.47414C24.8764 7.41828 24.9322 7.37309 24.996 7.34202C25.0597 7.31094 25.1296 7.29479 25.2005 7.29479C25.2714 7.29479 25.3414 7.31094 25.4051 7.34202C25.4688 7.37309 25.5246 7.41828 25.5683 7.47414L27.8829 10.4477C27.9364 10.5168 27.9694 10.5994 27.9782 10.6863C27.987 10.7732 27.9712 10.8608 27.9327 10.9391C27.8942 11.0175 27.8345 11.0835 27.7604 11.1296C27.6862 11.1757 27.6006 11.2001 27.5133 11.2Z" fill="#F47A15"/>
</svg>
