<svg width="18" height="18" viewBox="0 0 18 18" fill="none" xmlns="http://www.w3.org/2000/svg">
<g clip-path="url(#clip0_1459_17649)">
<path d="M0.837336 0.0469831C0.727034 -0.00052277 0.605013 -0.0138338 0.487062 0.00877231C0.369111 0.0313784 0.260658 0.0888612 0.175736 0.173783C0.0908143 0.258705 0.0333315 0.367158 0.0107254 0.485109C-0.0118807 0.60306 0.00143035 0.72508 0.0489362 0.835383L7.24894 17.6354C7.29686 17.7472 7.37768 17.8419 7.48065 17.9068C7.58362 17.9716 7.70388 18.0036 7.82548 17.9986C7.94707 17.9935 8.06425 17.9516 8.16145 17.8783C8.25866 17.8051 8.3313 17.7041 8.36974 17.5886L10.6749 10.673L17.5905 8.36898C17.7064 8.33078 17.8078 8.25817 17.8814 8.16083C17.9549 8.06349 17.997 7.94606 18.0021 7.82417C18.0072 7.70229 17.975 7.58175 17.9098 7.47863C17.8447 7.37551 17.7496 7.2947 17.6373 7.24698L0.837336 0.0469831Z" fill="#774A98"/>
</g>
<defs>
<clipPath id="clip0_1459_17649">
<rect width="18" height="18" fill="white"/>
</clipPath>
</defs>
</svg>
