<svg width="18" height="18" viewBox="0 0 18 18" fill="none" xmlns="http://www.w3.org/2000/svg">
<path d="M15.8258 8.15614L9.52578 14.4749C9.45078 14.5499 9.36953 14.6031 9.28203 14.6346C9.19453 14.6661 9.10078 14.6816 9.00078 14.6811C8.90078 14.6811 8.80703 14.6656 8.71953 14.6346C8.63203 14.6036 8.55078 14.5504 8.47578 14.4749L2.15703 8.15614C1.98203 7.98114 1.89453 7.76239 1.89453 7.49989C1.89453 7.23739 1.98828 7.01239 2.17578 6.82489C2.36328 6.63739 2.58203 6.54364 2.83203 6.54364C3.08203 6.54364 3.30078 6.63739 3.48828 6.82489L9.00078 12.3374L14.5133 6.82489C14.6883 6.64989 14.904 6.56239 15.1605 6.56239C15.417 6.56239 15.6388 6.65614 15.8258 6.84364C16.0133 7.03114 16.107 7.24989 16.107 7.49989C16.107 7.74989 16.0133 7.96864 15.8258 8.15614Z" fill="#36334D"/>
</svg>
