<svg width="15" height="19" viewBox="0 0 15 19" fill="none" xmlns="http://www.w3.org/2000/svg">
<path d="M6 9C6.4125 9 6.76575 8.853 7.05975 8.559C7.35375 8.265 7.5005 7.912 7.5 7.5C7.5 7.0875 7.353 6.73425 7.059 6.44025C6.765 6.14625 6.412 5.9995 6 6C5.5875 6 5.23425 6.147 4.94025 6.441C4.64625 6.735 4.4995 7.088 4.5 7.5C4.5 7.9125 4.647 8.26575 4.941 8.55975C5.235 8.85375 5.588 9.0005 6 9ZM6 16.5C3.9875 14.7875 2.4845 13.197 1.491 11.7285C0.4975 10.26 0.0005 8.9005 0 7.65C0 5.775 0.60325 4.28125 1.80975 3.16875C3.01625 2.05625 4.413 1.5 6 1.5C7.5875 1.5 8.9845 2.05625 10.191 3.16875C11.3975 4.28125 12.0005 5.775 12 7.65C12 8.9 11.503 10.2595 10.509 11.7285C9.515 13.1975 8.012 14.788 6 16.5Z" fill="#00A6CC"/>
</svg>
