<svg width="27" height="27" viewBox="0 0 27 27" fill="none" xmlns="http://www.w3.org/2000/svg">
<path fill-rule="evenodd" clip-rule="evenodd" d="M4.60053 5.11281C4.60028 5.19996 4.57563 5.2853 4.52938 5.35916C4.48312 5.43302 4.41711 5.49246 4.33881 5.53073C4.26052 5.569 4.17307 5.58459 4.08637 5.57572C3.99967 5.56685 3.91719 5.53388 3.84826 5.48054L0.874664 3.16774C0.818801 3.12409 0.773617 3.06829 0.74254 3.00458C0.711464 2.94086 0.695313 2.8709 0.695312 2.80001C0.695313 2.72911 0.711464 2.65915 0.74254 2.59544C0.773617 2.53172 0.818801 2.47592 0.874664 2.43227L3.84826 0.117607C3.91744 0.0640747 4.00027 0.0310613 4.0873 0.022332C4.17433 0.0136027 4.26206 0.0295089 4.34049 0.0682364C4.41892 0.106964 4.48488 0.166954 4.53086 0.241363C4.57684 0.315772 4.60098 0.401606 4.60053 0.489073V1.87041H15.8005V0.48534C15.8005 0.397865 15.8251 0.312145 15.8714 0.237959C15.9178 0.163772 15.984 0.104106 16.0627 0.0657664C16.1413 0.0274269 16.2291 0.0119579 16.3161 0.021124C16.4031 0.0302901 16.4858 0.0637223 16.5547 0.117607L19.5264 2.43041C19.5823 2.47405 19.6274 2.52985 19.6585 2.59357C19.6896 2.65729 19.7057 2.72725 19.7057 2.79814C19.7057 2.86903 19.6896 2.93899 19.6585 3.00271C19.6274 3.06643 19.5823 3.12223 19.5264 3.16587L16.5547 5.48054C16.4856 5.53452 16.4028 5.56798 16.3156 5.57707C16.2285 5.58617 16.1405 5.57054 16.0618 5.53197C15.9831 5.49341 15.9169 5.43346 15.8707 5.359C15.8245 5.28454 15.8002 5.19857 15.8005 5.11094V3.73334H4.60053V5.11281ZM16.7339 9.33334H3.6672C3.41966 9.33334 3.18227 9.43167 3.00723 9.60671C2.8322 9.78174 2.73386 10.0191 2.73386 10.2667V23.3333C2.73386 23.5809 2.8322 23.8183 3.00723 23.9933C3.18227 24.1683 3.41966 24.2667 3.6672 24.2667H16.7339C16.9814 24.2667 17.2188 24.1683 17.3938 23.9933C17.5689 23.8183 17.6672 23.5809 17.6672 23.3333V10.2667C17.6672 10.0191 17.5689 9.78174 17.3938 9.60671C17.2188 9.43167 16.9814 9.33334 16.7339 9.33334ZM3.6672 7.46667C2.92459 7.46667 2.2124 7.76167 1.6873 8.28677C1.1622 8.81188 0.867197 9.52407 0.867197 10.2667V23.3333C0.867197 24.0759 1.1622 24.7881 1.6873 25.3132C2.2124 25.8383 2.92459 26.1333 3.6672 26.1333H16.7339C17.4765 26.1333 18.1887 25.8383 18.7138 25.3132C19.2389 24.7881 19.5339 24.0759 19.5339 23.3333V10.2667C19.5339 9.52407 19.2389 8.81188 18.7138 8.28677C18.1887 7.76167 17.4765 7.46667 16.7339 7.46667H3.6672ZM26.5133 11.2H25.1339V22.4H26.5133C26.6005 22.4003 26.6858 22.4249 26.7597 22.4712C26.8335 22.5174 26.893 22.5834 26.9313 22.6617C26.9695 22.74 26.9851 22.8275 26.9762 22.9142C26.9674 23.0009 26.9344 23.0833 26.8811 23.1523L24.5683 26.1259C24.5246 26.1817 24.4688 26.2269 24.4051 26.258C24.3414 26.2891 24.2714 26.3052 24.2005 26.3052C24.1296 26.3052 24.0597 26.2891 23.996 26.258C23.9322 26.2269 23.8764 26.1817 23.8328 26.1259L21.5181 23.1523C21.4647 23.0832 21.4317 23.0006 21.4229 22.9137C21.4141 22.8268 21.4299 22.7393 21.4684 22.6609C21.5069 22.5825 21.5666 22.5165 21.6407 22.4704C21.7148 22.4243 21.8004 22.3999 21.8877 22.4H23.2672V11.2H21.8877C21.8006 11.1998 21.7152 11.1751 21.6414 11.1289C21.5675 11.0826 21.5081 11.0166 21.4698 10.9383C21.4315 10.86 21.4159 10.7725 21.4248 10.6858C21.4337 10.5991 21.4667 10.5167 21.52 10.4477L23.8328 7.47414C23.8764 7.41828 23.9322 7.37309 23.996 7.34202C24.0597 7.31094 24.1296 7.29479 24.2005 7.29479C24.2714 7.29479 24.3414 7.31094 24.4051 7.34202C24.4688 7.37309 24.5246 7.41828 24.5683 7.47414L26.8829 10.4477C26.9364 10.5168 26.9694 10.5994 26.9782 10.6863C26.987 10.7732 26.9712 10.8608 26.9327 10.9391C26.8942 11.0175 26.8345 11.0835 26.7604 11.1296C26.6862 11.1757 26.6006 11.2001 26.5133 11.2Z" fill="#F47A15"/>
</svg>
