<svg width="18" height="18" viewBox="0 0 18 18" fill="none" xmlns="http://www.w3.org/2000/svg">
<path d="M0.837336 0.0479596C0.727034 0.000453792 0.605013 -0.0128572 0.487062 0.00974888C0.369111 0.032355 0.260658 0.0898378 0.175736 0.17476C0.0908143 0.259682 0.0333315 0.368134 0.0107254 0.486085C-0.0118807 0.604036 0.00143035 0.726057 0.0489362 0.83636L7.24894 17.6364C7.29686 17.7482 7.37768 17.8429 7.48065 17.9077C7.58362 17.9726 7.70388 18.0046 7.82548 17.9995C7.94707 17.9945 8.06425 17.9525 8.16145 17.8793C8.25866 17.8061 8.3313 17.705 8.36974 17.5896L10.6749 10.674L17.5905 8.36996C17.7064 8.33175 17.8078 8.25914 17.8814 8.16181C17.9549 8.06447 17.997 7.94703 18.0021 7.82515C18.0072 7.70327 17.975 7.58273 17.9098 7.47961C17.8447 7.37649 17.7496 7.29568 17.6373 7.24796L0.837336 0.0479596Z" fill="#FD780B"/>
</svg>
