<svg width="25" height="16" viewBox="0 0 25 16" fill="none" xmlns="http://www.w3.org/2000/svg">
<path d="M24.6436 14.5714L17.4993 1.87511H23.843C24.0701 1.88011 24.2906 1.79842 24.4597 1.64665C24.6287 1.49488 24.7336 1.28443 24.753 1.05808C24.761 0.938393 24.7442 0.81835 24.7038 0.705406C24.6634 0.592462 24.6002 0.489031 24.5182 0.401538C24.4361 0.314045 24.3369 0.244357 24.2268 0.196805C24.1167 0.149252 23.998 0.12485 23.878 0.125113H1.15755C0.931368 0.121515 0.712234 0.203836 0.544363 0.355468C0.376491 0.507101 0.272376 0.716759 0.253023 0.942145C0.245076 1.06183 0.261823 1.18188 0.302223 1.29482C0.342624 1.40776 0.405815 1.51119 0.487872 1.59869C0.569929 1.68618 0.669099 1.75587 0.779223 1.80342C0.889346 1.85097 1.00807 1.87538 1.12802 1.87511H7.50677L0.362398 14.5714C0.270687 14.7344 0.233628 14.9225 0.256659 15.1081C0.27969 15.2937 0.361597 15.4671 0.490367 15.6028C0.57559 15.6903 0.677709 15.7595 0.790521 15.8063C0.903333 15.8532 1.02448 15.8766 1.14662 15.8751H11.1905C11.3066 15.8751 11.4178 15.829 11.4999 15.747C11.5819 15.6649 11.628 15.5536 11.628 15.4376V13.2796C11.625 13.0538 11.7076 12.8352 11.8591 12.6678C12.0107 12.5004 12.22 12.3966 12.4451 12.3773C12.5647 12.3694 12.6848 12.3861 12.7977 12.4265C12.9107 12.4669 13.0141 12.5301 13.1016 12.6122C13.1891 12.6942 13.2588 12.7934 13.3063 12.9035C13.3539 13.0136 13.3783 13.1323 13.378 13.2523V15.4398C13.378 15.5558 13.4241 15.6671 13.5062 15.7492C13.5882 15.8312 13.6995 15.8773 13.8155 15.8773H23.8529C23.975 15.8787 24.0961 15.8553 24.209 15.8085C24.3218 15.7617 24.4239 15.6925 24.5091 15.605C24.6394 15.4699 24.7229 15.2965 24.7471 15.1104C24.7713 14.9243 24.735 14.7353 24.6436 14.5714ZM13.378 9.31261C13.378 9.54468 13.2858 9.76724 13.1217 9.93133C12.9576 10.0954 12.7351 10.1876 12.503 10.1876C12.271 10.1876 12.0484 10.0954 11.8843 9.93133C11.7202 9.76724 11.628 9.54468 11.628 9.31261V7.56261C11.628 7.33055 11.7202 7.10799 11.8843 6.94389C12.0484 6.7798 12.271 6.68761 12.503 6.68761C12.7351 6.68761 12.9576 6.7798 13.1217 6.94389C13.2858 7.10799 13.378 7.33055 13.378 7.56261V9.31261ZM13.378 3.62511C13.378 3.85718 13.2858 4.07974 13.1217 4.24383C12.9576 4.40793 12.7351 4.50011 12.503 4.50011C12.271 4.50011 12.0484 4.40793 11.8843 4.24383C11.7202 4.07974 11.628 3.85718 11.628 3.62511V2.75011C11.628 2.51805 11.7202 2.29549 11.8843 2.13139C12.0484 1.9673 12.271 1.87511 12.503 1.87511C12.7351 1.87511 12.9576 1.9673 13.1217 2.13139C13.2858 2.29549 13.378 2.51805 13.378 2.75011V3.62511Z" fill="#FD780B"/>
</svg>
