<svg width="20" height="20" viewBox="0 0 20 20" fill="none" xmlns="http://www.w3.org/2000/svg">
<path d="M16.0257 20.0017C15.1541 20.0017 13.9297 19.6865 12.0963 18.6622C9.86683 17.4119 8.14237 16.2577 5.92495 14.046C3.78701 11.9094 2.74662 10.5261 1.29052 7.87648C-0.354456 4.88479 -0.074042 3.31661 0.239415 2.64639C0.612706 1.84533 1.16371 1.36622 1.87591 0.890672C2.28043 0.625634 2.70852 0.398437 3.15474 0.211962C3.1994 0.192762 3.24092 0.174454 3.27798 0.157933C3.49901 0.0583593 3.8339 -0.0921179 4.25809 0.0686292C4.54119 0.174901 4.79392 0.392356 5.18953 0.783061C6.00086 1.58322 7.10957 3.36529 7.51858 4.24046C7.79319 4.83032 7.97493 5.21968 7.97537 5.65638C7.97537 6.16764 7.71818 6.56192 7.40606 6.98745C7.34756 7.06738 7.28952 7.14374 7.23325 7.21786C6.89345 7.66438 6.81888 7.79342 6.868 8.02383C6.96758 8.48687 7.71014 9.86528 8.93048 11.0829C10.1508 12.3006 11.4895 12.9963 11.9543 13.0954C12.1945 13.1467 12.3263 13.0691 12.7871 12.7172C12.8532 12.6667 12.921 12.6145 12.992 12.5623C13.468 12.2082 13.844 11.9577 14.3432 11.9577H14.3459C14.7803 11.9577 15.1523 12.1461 15.7685 12.4569C16.5722 12.8623 18.4079 13.9567 19.2129 14.769C19.6045 15.1637 19.8229 15.4155 19.9296 15.6982C20.0903 16.1237 19.939 16.4572 19.8403 16.6805C19.8238 16.7176 19.8055 16.7582 19.7863 16.8033C19.5983 17.2487 19.3698 17.6759 19.1035 18.0795C18.6289 18.7894 18.148 19.3391 17.3451 19.7128C16.9329 19.9078 16.4817 20.0066 16.0257 20.0017Z" fill="#774A98"/>
</svg>
