<svg width="15" height="15" viewBox="0 0 15 15" fill="none" xmlns="http://www.w3.org/2000/svg">
<path d="M7.48047 12.085L7.1748 11.8896L7.16797 11.8848C7.16664 11.8839 7.16217 11.8807 7.15332 11.875C7.14272 11.8682 7.12729 11.8591 7.1084 11.8467C7.07073 11.8219 7.01763 11.7865 6.95117 11.7412C6.8178 11.6504 6.63109 11.5198 6.40918 11.3564C5.96458 11.0291 5.38009 10.5707 4.79492 10.0303C4.17678 9.45958 3.67158 8.90217 3.28613 8.37109L3.12793 8.14551C2.87507 7.76802 2.68196 7.40014 2.54883 7.05273C2.39019 6.63794 2.31351 6.23959 2.31348 5.86621C2.31348 5.46685 2.39356 5.07939 2.55078 4.71387C2.6642 4.45034 2.81589 4.20502 3 3.98633L3.19531 3.77637C3.40243 3.57351 3.63495 3.40318 3.88867 3.26855L4.14941 3.14551C4.51822 2.99231 4.9087 2.91504 5.31348 2.91504C5.87447 2.91504 6.42086 3.06891 6.89551 3.3584C7.00904 3.42765 7.11703 3.50344 7.21875 3.58594L7.48047 3.79785L7.74219 3.58594C7.84379 3.50354 7.95107 3.42758 8.06445 3.3584C8.53916 3.0688 9.08636 2.91504 9.64746 2.91504H9.64844C9.94775 2.91436 10.2449 2.95831 10.5303 3.04492L10.8115 3.14551C11.1668 3.2925 11.4911 3.50626 11.7656 3.77539V3.77637C11.971 3.97723 12.1457 4.2065 12.2842 4.45703L12.4102 4.71387C12.5674 5.07937 12.6466 5.46669 12.6455 5.86523V5.86621C12.6455 6.23959 12.5698 6.63794 12.4111 7.05273V7.05371C12.3125 7.31346 12.1777 7.5849 12.0098 7.86426L11.8311 8.14551C11.4299 8.7436 10.8705 9.37808 10.1641 10.0303C8.99001 11.1133 7.82787 11.8623 7.78516 11.8896L7.48047 12.085Z" stroke="#747474" stroke-width="0.830083"/>
</svg>
