<svg width="15" height="15" viewBox="0 0 15 15" fill="none" xmlns="http://www.w3.org/2000/svg">
<path d="M12.7299 5.11593C12.5567 4.71499 12.307 4.35167 11.9948 4.04631C11.6824 3.74003 11.314 3.49663 10.9097 3.32935C10.4905 3.15519 10.0408 3.06606 9.58687 3.06711C8.95001 3.06711 8.32865 3.24151 7.78867 3.57092C7.65949 3.64972 7.53676 3.73627 7.4205 3.83058C7.30424 3.73627 7.18151 3.64972 7.05233 3.57092C6.51235 3.24151 5.89099 3.06711 5.25413 3.06711C4.79553 3.06711 4.35115 3.15496 3.93131 3.32935C3.52568 3.49729 3.1601 3.73886 2.84618 4.04631C2.53355 4.35133 2.28382 4.71474 2.11114 5.11593C1.93158 5.53319 1.83986 5.97628 1.83986 6.43229C1.83986 6.86247 1.9277 7.31073 2.1021 7.76674C2.24807 8.14782 2.45735 8.54312 2.72475 8.94229C3.14847 9.57398 3.73108 10.2328 4.45449 10.9007C5.6533 12.0078 6.84048 12.7725 6.89086 12.8035L7.19702 12.9999C7.33266 13.0864 7.50705 13.0864 7.64269 12.9999L7.94885 12.8035C7.99923 12.7712 9.18512 12.0078 10.3852 10.9007C11.1086 10.2328 11.6912 9.57398 12.115 8.94229C12.3824 8.54312 12.5929 8.14782 12.7376 7.76674C12.912 7.31073 12.9998 6.86247 12.9998 6.43229C13.0011 5.97628 12.9094 5.53319 12.7299 5.11593Z" fill="#E53935"/>
</svg>
