<svg width="27" height="25" viewBox="0 0 27 25" fill="none" xmlns="http://www.w3.org/2000/svg">
<path d="M19.501 1C23.0564 1 25.8348 3.76664 25.835 7.33301C25.835 9.51758 24.8585 11.5849 22.9355 13.9375C21.0016 16.3035 18.2156 18.8347 14.7627 21.9658L14.7617 21.9668L13.501 23.1143L12.2412 21.9668L12.2393 21.9658C8.78653 18.8349 6.00128 16.3034 4.06738 13.9375C2.14441 11.5849 1.16797 9.51758 1.16797 7.33301C1.16814 3.76675 3.94567 1.00017 7.50098 1C9.51866 1 11.4718 1.94466 12.7422 3.4248L13.501 4.30859L14.2598 3.4248C15.5301 1.94473 17.4834 1.0001 19.501 1Z" fill="#FFE8E8" stroke="#FE3B3A" stroke-width="2"/>
</svg>
