<svg width="24" height="24" viewBox="0 0 24 24" fill="none" xmlns="http://www.w3.org/2000/svg">
<path d="M2.4375 3.97455V8.11905C2.4375 8.74455 1.93463 9.25192 1.3125 9.25192C0.6915 9.25192 0.1875 8.74455 0.1875 8.11905V1.31842C0.1875 1.00567 0.3135 0.722172 0.517125 0.517422C0.72075 0.312672 1.002 0.185547 1.3125 0.185547H8.0625C8.68463 0.185547 9.1875 0.692922 9.1875 1.31842C9.1875 1.94392 8.68463 2.4513 8.0625 2.4513H4.10813L10.9144 9.3093C11.3543 9.75255 11.3543 10.4692 10.9144 10.9124C10.4756 11.3545 9.7635 11.3545 9.32363 10.9124L2.4375 3.97455Z" fill="white"/>
<path d="M21.5649 19.9721V15.9379C21.5649 15.3169 22.0689 14.8129 22.6899 14.8129C23.3109 14.8129 23.8149 15.3169 23.8149 15.9379V22.6879C23.8149 22.9995 23.6889 23.2808 23.4853 23.4833C23.2816 23.6869 23.0004 23.8129 22.6899 23.8129H15.9399C15.3189 23.8129 14.8149 23.31 14.8149 22.6879C14.8149 22.0669 15.3189 21.5629 15.9399 21.5629H19.9741L13.0869 14.6768C12.6481 14.238 12.6481 13.5248 13.0869 13.086C13.5267 12.6461 14.2389 12.6461 14.6787 13.086L21.5649 19.9721Z" fill="white"/>
</svg>
