<svg width="43" height="43" viewBox="0 0 43 43" fill="none" xmlns="http://www.w3.org/2000/svg">
<rect width="43" height="43" rx="21.5" fill="#ECEAFF"/>
<path d="M21.7725 13.9443C21.6998 13.8748 21.603 13.8359 21.5024 13.8359C21.4018 13.8359 21.3051 13.8748 21.2324 13.9443L12.2432 22.5317C12.205 22.5682 12.1746 22.6121 12.1539 22.6607C12.1332 22.7093 12.1225 22.7616 12.1226 22.8144L12.1211 30.874C12.1211 31.2884 12.2857 31.6858 12.5787 31.9788C12.8718 32.2719 13.2692 32.4365 13.6836 32.4365H18.376C18.5832 32.4365 18.7819 32.3542 18.9284 32.2077C19.0749 32.0611 19.1572 31.8624 19.1572 31.6552V25.0146C19.1572 24.911 19.1984 24.8116 19.2716 24.7384C19.3449 24.6651 19.4443 24.624 19.5479 24.624H23.4541C23.5577 24.624 23.6571 24.6651 23.7303 24.7384C23.8036 24.8116 23.8447 24.911 23.8447 25.0146V31.6552C23.8447 31.8624 23.927 32.0611 24.0735 32.2077C24.2201 32.3542 24.4188 32.4365 24.626 32.4365H29.3164C29.7308 32.4365 30.1282 32.2719 30.4213 31.9788C30.7143 31.6858 30.8789 31.2884 30.8789 30.874V22.8144C30.879 22.7616 30.8683 22.7093 30.8476 22.6607C30.8269 22.6121 30.7965 22.5682 30.7583 22.5317L21.7725 13.9443Z" fill="url(#paint0_linear_1448_40458)"/>
<path d="M32.9702 20.9214L29.3179 17.4272V12.125C29.3179 11.9178 29.2356 11.7191 29.0891 11.5726C28.9426 11.4261 28.7438 11.3438 28.5366 11.3438H26.1929C25.9857 11.3438 25.787 11.4261 25.6405 11.5726C25.4939 11.7191 25.4116 11.9178 25.4116 12.125V13.6875L22.5835 10.9834C22.3189 10.7158 21.9253 10.5625 21.5 10.5625C21.0762 10.5625 20.6836 10.7158 20.419 10.9839L10.0332 20.9204C9.72951 21.2134 9.69142 21.6953 9.96779 22.0127C10.0372 22.0928 10.1222 22.158 10.2175 22.2042C10.3129 22.2504 10.4167 22.2768 10.5226 22.2816C10.6285 22.2864 10.7342 22.2697 10.8334 22.2324C10.9326 22.195 11.0232 22.1379 11.0996 22.0645L21.2315 12.3828C21.3042 12.3133 21.4009 12.2745 21.5015 12.2745C21.6021 12.2745 21.6988 12.3133 21.7715 12.3828L31.9043 22.0645C32.0536 22.2076 32.2535 22.2857 32.4603 22.2817C32.667 22.2777 32.8638 22.1918 33.0073 22.043C33.3071 21.7324 33.2822 21.2197 32.9702 20.9214Z" fill="#252A93"/>
<defs>
<linearGradient id="paint0_linear_1448_40458" x1="21.5" y1="13.8359" x2="21.001" y2="40.499" gradientUnits="userSpaceOnUse">
<stop stop-color="#252A93"/>
<stop offset="1" stop-color="#634A9A"/>
</linearGradient>
</defs>
</svg>
