<svg width="24" height="24" viewBox="0 0 24 24" fill="none" xmlns="http://www.w3.org/2000/svg">
<path d="M3.11995 8.4C3.11995 8.08483 3.18203 7.77274 3.30264 7.48156C3.42325 7.19038 3.60003 6.9258 3.82289 6.70294C4.04576 6.48008 4.31033 6.3033 4.60151 6.18269C4.89269 6.06208 5.20478 6 5.51995 6C5.83512 6 6.14721 6.06208 6.43839 6.18269C6.72957 6.3033 6.99415 6.48008 7.21701 6.70294C7.43987 6.9258 7.61665 7.19038 7.73726 7.48156C7.85787 7.77274 7.91995 8.08483 7.91995 8.4C7.91995 9.03652 7.66709 9.64697 7.21701 10.0971C6.76692 10.5471 6.15647 10.8 5.51995 10.8C4.88343 10.8 4.27298 10.5471 3.82289 10.0971C3.37281 9.64697 3.11995 9.03652 3.11995 8.4ZM1.19995 14.4C1.19995 13.0763 2.2762 12 3.59995 12H7.19995C7.65745 12 8.0887 12.1275 8.45245 12.3525C7.05745 12.9188 5.99245 14.1225 5.60995 15.6H2.39995C1.7362 15.6 1.19995 15.0638 1.19995 14.4ZM18.51 15.6C18.1237 14.0963 17.025 12.8775 15.5962 12.3225C15.9487 12.1163 16.3612 12 16.8 12H20.4C21.7237 12 22.7999 13.0763 22.7999 14.4C22.7999 15.0638 22.2637 15.6 21.6 15.6H18.51ZM14.67 13.29C15.8737 13.5675 16.8487 14.4488 17.2537 15.6C17.385 15.975 17.4599 16.38 17.4599 16.8C17.4599 17.4638 16.9237 18 16.26 18H7.85995C7.1962 18 6.65995 17.4638 6.65995 16.8C6.65995 16.38 6.7312 15.975 6.8662 15.6C7.25995 14.4862 8.18995 13.62 9.34495 13.3163C9.63745 13.2375 9.94495 13.2 10.2637 13.2H13.8637C14.1412 13.2 14.415 13.23 14.6737 13.29H14.67ZM16.32 8.4C16.32 7.76348 16.5728 7.15303 17.0229 6.70294C17.473 6.25286 18.0834 6 18.7199 6C19.3565 6 19.9669 6.25286 20.417 6.70294C20.8671 7.15303 21.12 7.76348 21.12 8.4C21.12 9.03652 20.8671 9.64697 20.417 10.0971C19.9669 10.5471 19.3565 10.8 18.7199 10.8C18.0834 10.8 17.473 10.5471 17.0229 10.0971C16.5728 9.64697 16.32 9.03652 16.32 8.4ZM12.06 6C12.8556 6 13.6187 6.31607 14.1813 6.87868C14.7439 7.44129 15.06 8.20435 15.06 9C15.06 9.79565 14.7439 10.5587 14.1813 11.1213C13.6187 11.6839 12.8556 12 12.06 12C11.2643 12 10.5012 11.6839 9.93863 11.1213C9.37602 10.5587 9.05995 9.79565 9.05995 9C9.05995 8.20435 9.37602 7.44129 9.93863 6.87868C10.5012 6.31607 11.2643 6 12.06 6Z" fill="black"/>
</svg>
