<svg width="19" height="19" viewBox="0 0 19 19" fill="none" xmlns="http://www.w3.org/2000/svg">
<path d="M9.5 13.25C9.89782 13.25 10.2794 13.092 10.5607 12.8107C10.842 12.5294 11 12.1478 11 11.75C11 11.3522 10.842 10.9706 10.5607 10.6893C10.2794 10.408 9.89782 10.25 9.5 10.25C9.10218 10.25 8.72064 10.408 8.43934 10.6893C8.15804 10.9706 8 11.3522 8 11.75C8 12.1478 8.15804 12.5294 8.43934 12.8107C8.72064 13.092 9.10218 13.25 9.5 13.25ZM14 6.5C14.3978 6.5 14.7794 6.65804 15.0607 6.93934C15.342 7.22064 15.5 7.60218 15.5 8V15.5C15.5 15.8978 15.342 16.2794 15.0607 16.5607C14.7794 16.842 14.3978 17 14 17H5C4.60218 17 4.22064 16.842 3.93934 16.5607C3.65804 16.2794 3.5 15.8978 3.5 15.5V8C3.5 7.60218 3.65804 7.22064 3.93934 6.93934C4.22064 6.65804 4.60218 6.5 5 6.5H5.75V5C5.75 4.00544 6.14509 3.05161 6.84835 2.34835C7.55161 1.64509 8.50544 1.25 9.5 1.25C9.99246 1.25 10.4801 1.347 10.9351 1.53545C11.39 1.72391 11.8034 2.00013 12.1517 2.34835C12.4999 2.69657 12.7761 3.10997 12.9645 3.56494C13.153 4.01991 13.25 4.50754 13.25 5V6.5H14ZM9.5 2.75C8.90326 2.75 8.33097 2.98705 7.90901 3.40901C7.48705 3.83097 7.25 4.40326 7.25 5V6.5H11.75V5C11.75 4.40326 11.5129 3.83097 11.091 3.40901C10.669 2.98705 10.0967 2.75 9.5 2.75Z" fill="#36334D"/>
</svg>
