<svg width="19" height="19" viewBox="0 0 19 19" fill="none" xmlns="http://www.w3.org/2000/svg">
<path d="M8.375 15.5H10.625C10.725 15.5 10.8125 15.4625 10.8875 15.3875C10.9625 15.3125 11 15.225 11 15.125C11 15.025 10.9625 14.9375 10.8875 14.8625C10.8125 14.7875 10.725 14.75 10.625 14.75H8.375C8.275 14.75 8.1875 14.7875 8.1125 14.8625C8.0375 14.9375 8 15.025 8 15.125C8 15.225 8.0375 15.3125 8.1125 15.3875C8.1875 15.4625 8.275 15.5 8.375 15.5ZM5.75 17.75C5.3375 17.75 4.98425 17.603 4.69025 17.309C4.39625 17.015 4.2495 16.662 4.25 16.25V2.75C4.25 2.3375 4.397 1.98425 4.691 1.69025C4.985 1.39625 5.338 1.2495 5.75 1.25H13.25C13.6625 1.25 14.0158 1.397 14.3098 1.691C14.6038 1.985 14.7505 2.338 14.75 2.75V16.25C14.75 16.6625 14.603 17.0158 14.309 17.3098C14.015 17.6038 13.662 17.7505 13.25 17.75H5.75ZM5.75 12.5H13.25V5H5.75V12.5Z" fill="#36334D"/>
</svg>
