<svg width="15" height="14" viewBox="0 0 15 14" fill="none" xmlns="http://www.w3.org/2000/svg">
<path d="M8.63127 0.276545L14.7152 6.36051C14.8074 6.45269 14.8729 6.55255 14.9116 6.6601C14.9503 6.76764 14.9694 6.88287 14.9687 7.00578C14.9687 7.12869 14.9494 7.24391 14.9107 7.35146C14.8719 7.459 14.8068 7.55887 14.7152 7.65105L8.63127 13.735C8.46227 13.904 8.25087 13.9922 7.99707 13.9996C7.74326 14.0069 7.52448 13.9188 7.34073 13.735C7.15637 13.566 7.0602 13.3546 7.05221 13.1008C7.04422 12.847 7.13271 12.6282 7.31769 12.4445L11.8346 7.92759L1.53331 7.92759C1.27213 7.92759 1.05305 7.8391 0.87606 7.66211C0.699072 7.48512 0.610885 7.26634 0.6115 7.00578C0.6115 6.7446 0.699687 6.52551 0.87606 6.34853C1.05243 6.17154 1.27152 6.08335 1.53331 6.08397L11.8346 6.08397L7.31769 1.56708C7.14869 1.39808 7.0602 1.18299 7.05221 0.921813C7.04422 0.660633 7.13271 0.445544 7.31769 0.276545C7.48669 0.0921822 7.70178 0 7.96296 0C8.22414 0 8.44691 0.0921822 8.63127 0.276545Z" fill="#FFD300"/>
</svg>
