<svg width="15" height="15" viewBox="0 0 15 15" fill="none" xmlns="http://www.w3.org/2000/svg">
<path d="M6.94685 14.0594L0.862888 7.97543C0.770707 7.88325 0.705258 7.78338 0.666542 7.67584C0.627825 7.56829 0.608775 7.45307 0.609389 7.33016C0.609389 7.20725 0.628748 7.09202 0.667464 6.98448C0.70618 6.87693 0.771321 6.77707 0.862888 6.68489L6.94685 0.600924C7.11585 0.431925 7.32725 0.343739 7.58106 0.336364C7.83487 0.32899 8.05364 0.417176 8.23739 0.600924C8.42175 0.769923 8.51793 0.981326 8.52592 1.23513C8.53391 1.48894 8.44541 1.70771 8.26044 1.89146L3.74355 6.40835H14.0448C14.306 6.40835 14.5251 6.49684 14.7021 6.67383C14.8791 6.85082 14.9672 7.06959 14.9666 7.33016C14.9666 7.59134 14.8784 7.81042 14.7021 7.98741C14.5257 8.1644 14.3066 8.25259 14.0448 8.25197H3.74355L8.26044 12.7689C8.42944 12.9379 8.51793 13.1529 8.52592 13.4141C8.53391 13.6753 8.44541 13.8904 8.26044 14.0594C8.09144 14.2438 7.87635 14.3359 7.61517 14.3359C7.35399 14.3359 7.13122 14.2438 6.94685 14.0594Z" fill="#FFD300"/>
</svg>
