<svg width="17" height="16" viewBox="0 0 17 16" fill="none" xmlns="http://www.w3.org/2000/svg">
<path d="M14.6802 6.91679L9.08021 12.5335C9.01354 12.6001 8.94132 12.6475 8.86354 12.6755C8.78576 12.7035 8.70243 12.7172 8.61354 12.7168C8.52465 12.7168 8.44132 12.703 8.36354 12.6755C8.28576 12.6479 8.21354 12.6006 8.14687 12.5335L2.53021 6.91679C2.37465 6.76123 2.29688 6.56679 2.29688 6.33345C2.29688 6.10012 2.38021 5.90012 2.54688 5.73345C2.71354 5.56679 2.90799 5.48345 3.13021 5.48345C3.35243 5.48345 3.54688 5.56679 3.71354 5.73345L8.61354 10.6335L13.5135 5.73345C13.6691 5.5779 13.8609 5.50012 14.0889 5.50012C14.3169 5.50012 14.514 5.58345 14.6802 5.75012C14.8469 5.91679 14.9302 6.11123 14.9302 6.33345C14.9302 6.55568 14.8469 6.75012 14.6802 6.91679Z" fill="#36334D"/>
</svg>
