<svg width="25" height="24" viewBox="0 0 25 24" fill="none" xmlns="http://www.w3.org/2000/svg">
<path d="M16.6078 8.4L7.73281 17.3C7.53281 17.5 7.29515 17.6 7.01981 17.6C6.74448 17.6 6.50715 17.5 6.30781 17.3C6.10781 17.1 6.00781 16.8623 6.00781 16.587C6.00781 16.3117 6.10781 16.0743 6.30781 15.875L15.2078 7H7.60781C7.32448 7 7.08681 6.904 6.89481 6.712C6.70281 6.52 6.60715 6.28267 6.60781 6C6.60781 5.71667 6.70381 5.479 6.89581 5.287C7.08781 5.095 7.32515 4.99934 7.60781 5H17.6078C17.8911 5 18.1288 5.096 18.3208 5.288C18.5128 5.48 18.6085 5.71734 18.6078 6V16C18.6078 16.2833 18.5118 16.521 18.3198 16.713C18.1278 16.905 17.8905 17.0007 17.6078 17C17.3245 17 17.0868 16.904 16.8948 16.712C16.7028 16.52 16.6071 16.2827 16.6078 16V8.4Z" fill="#FFD300"/>
</svg>
