<svg width="29" height="28" viewBox="0 0 29 28" fill="none" xmlns="http://www.w3.org/2000/svg">
<path d="M22.6137 20.171L21.1087 18.666V12.8327C21.1087 9.25102 19.1954 6.25268 15.8587 5.45935V4.66602C15.8587 3.69768 15.077 2.91602 14.1087 2.91602C13.1404 2.91602 12.3587 3.69768 12.3587 4.66602V5.45935C9.01037 6.25268 7.1087 9.23935 7.1087 12.8327V18.666L5.6037 20.171C4.8687 20.906 5.38204 22.166 6.42037 22.166H21.7854C22.8354 22.166 23.3487 20.906 22.6137 20.171ZM18.7754 19.8327H9.44204V12.8327C9.44204 9.93935 11.2037 7.58268 14.1087 7.58268C17.0137 7.58268 18.7754 9.93935 18.7754 12.8327V19.8327ZM14.1087 25.666C15.392 25.666 16.442 24.616 16.442 23.3327H11.7754C11.7754 23.9515 12.0212 24.545 12.4588 24.9826C12.8964 25.4202 13.4899 25.666 14.1087 25.666Z" fill="white"/>
</svg>
