<svg width="29" height="28" viewBox="0 0 29 28" fill="none" xmlns="http://www.w3.org/2000/svg">
<g clip-path="url(#clip0_1448_28691)">
<path d="M13.2344 22.82C10.1719 22.82 7.46462 21.252 5.88438 18.9C5.92112 16.45 10.7844 15.1025 13.2344 15.1025C15.6844 15.1025 20.5476 16.45 20.5844 18.9C19.7745 20.1059 18.6806 21.0942 17.3988 21.7777C16.1171 22.4613 14.687 22.8193 13.2344 22.82ZM13.2344 5.425C14.209 5.425 15.1438 5.81219 15.833 6.50138C16.5222 7.19058 16.9094 8.12533 16.9094 9.1C16.9094 10.0747 16.5222 11.0094 15.833 11.6986C15.1438 12.3878 14.209 12.775 13.2344 12.775C12.2597 12.775 11.325 12.3878 10.6358 11.6986C9.94656 11.0094 9.55937 10.0747 9.55937 9.1C9.55937 8.12533 9.94656 7.19058 10.6358 6.50138C11.325 5.81219 12.2597 5.425 13.2344 5.425ZM13.2344 1.75C11.6257 1.75 10.0327 2.06686 8.5465 2.68248C7.06026 3.2981 5.70983 4.20042 4.57232 5.33794C2.275 7.63526 0.984375 10.7511 0.984375 14C0.984375 17.2489 2.275 20.3647 4.57232 22.6621C5.70983 23.7996 7.06026 24.7019 8.5465 25.3175C10.0327 25.9331 11.6257 26.25 13.2344 26.25C16.4833 26.25 19.5991 24.9594 21.8964 22.6621C24.1938 20.3647 25.4844 17.2489 25.4844 14C25.4844 7.22575 19.9719 1.75 13.2344 1.75Z" fill="white"/>
</g>
<defs>
<clipPath id="clip0_1448_28691">
<rect width="28" height="28" fill="white" transform="translate(0.109375)"/>
</clipPath>
</defs>
</svg>
