<svg width="25" height="24" viewBox="0 0 25 24" fill="none" xmlns="http://www.w3.org/2000/svg">
<path d="M17.1094 4C19.6383 4 21.6094 5.96348 21.6094 8.5C21.6094 10.0562 20.9163 11.5515 19.4912 13.2949C18.0552 15.0517 15.9822 16.9364 13.3877 19.2891L13.3857 19.29L12.6094 19.9971L11.833 19.29L11.8311 19.2891C9.23656 16.9364 7.16356 15.0517 5.72754 13.2949C4.30249 11.5515 3.60938 10.0562 3.60938 8.5C3.60938 5.96348 5.58047 4 8.10938 4C9.54707 4 10.9435 4.67462 11.8506 5.73145L12.6094 6.61523L13.3682 5.73145C14.2752 4.67462 15.6717 4 17.1094 4Z" stroke="#FE3B3A" stroke-width="2"/>
</svg>
