<svg width="38" height="37" viewBox="0 0 38 37" fill="none" xmlns="http://www.w3.org/2000/svg">
<path d="M26.574 31.0953C25.0815 32.5421 23.4519 32.3136 21.8833 31.6283C20.2232 30.9277 18.7003 30.8973 16.9489 31.6283C14.7558 32.5726 13.5983 32.2984 12.2886 31.0953C4.85646 23.4347 5.953 11.7688 14.3903 11.3423C16.4463 11.4489 17.8779 12.4693 19.081 12.5607C20.8781 12.1952 22.5991 11.1443 24.518 11.2814C26.8177 11.4642 28.5539 12.3779 29.6961 14.0228C24.9445 16.8707 26.0715 23.1301 30.4272 24.8815C29.5591 27.166 28.4321 29.4352 26.5588 31.1105L26.574 31.0953ZM18.9287 11.2509C18.7003 7.85472 21.4569 5.05246 24.6246 4.77832C25.0663 8.70759 21.0609 11.6317 18.9287 11.2509Z" fill="#111111"/>
</svg>
