<svg width="25" height="24" viewBox="0 0 25 24" fill="none" xmlns="http://www.w3.org/2000/svg">
<path d="M12.6094 14C14.2694 14 15.6094 12.66 15.6094 11V5C15.6094 3.34 14.2694 2 12.6094 2C10.9494 2 9.60938 3.34 9.60938 5V11C9.60938 12.66 10.9494 14 12.6094 14Z" fill="#36334D"/>
<path d="M17.6094 11C17.6094 13.76 15.3694 16 12.6094 16C9.84937 16 7.60938 13.76 7.60938 11H5.60938C5.60938 14.53 8.21937 17.43 11.6094 17.92V21H13.6094V17.92C16.9994 17.43 19.6094 14.53 19.6094 11H17.6094Z" fill="#36334D"/>
</svg>
