<svg width="25" height="24" viewBox="0 0 25 24" fill="none" xmlns="http://www.w3.org/2000/svg">
<path d="M11.6062 22.9508V20.9508C9.52292 20.7174 7.73525 19.8551 6.24325 18.3638C4.75125 16.8724 3.88892 15.0848 3.65625 13.0008H1.65625V11.0008H3.65625C3.88958 8.91745 4.75225 7.12978 6.24425 5.63778C7.73625 4.14578 9.52358 3.28345 11.6062 3.05078V1.05078H13.6062V3.05078C15.6896 3.28411 17.4773 4.14678 18.9693 5.63878C20.4613 7.13078 21.3236 8.91811 21.5563 11.0008H23.5563V13.0008H21.5563C21.3229 15.0841 20.4606 16.8718 18.9693 18.3638C17.4779 19.8558 15.6903 20.7181 13.6062 20.9508V22.9508H11.6062ZM12.6062 19.0008C14.5396 19.0008 16.1896 18.3174 17.5563 16.9508C18.9229 15.5841 19.6063 13.9341 19.6063 12.0008C19.6063 10.0674 18.9229 8.41745 17.5563 7.05078C16.1896 5.68411 14.5396 5.00078 12.6062 5.00078C10.6729 5.00078 9.02292 5.68411 7.65625 7.05078C6.28958 8.41745 5.60625 10.0674 5.60625 12.0008C5.60625 13.9341 6.28958 15.5841 7.65625 16.9508C9.02292 18.3174 10.6729 19.0008 12.6062 19.0008ZM12.6062 16.0008C11.5062 16.0008 10.5646 15.6091 9.78125 14.8258C8.99792 14.0424 8.60625 13.1008 8.60625 12.0008C8.60625 10.9008 8.99792 9.95912 9.78125 9.17578C10.5646 8.39245 11.5062 8.00078 12.6062 8.00078C13.7063 8.00078 14.6479 8.39245 15.4312 9.17578C16.2146 9.95912 16.6062 10.9008 16.6062 12.0008C16.6062 13.1008 16.2146 14.0424 15.4312 14.8258C14.6479 15.6091 13.7063 16.0008 12.6062 16.0008Z" fill="#36334D"/>
</svg>
