<svg width="32" height="32" viewBox="0 0 32 32" fill="none" xmlns="http://www.w3.org/2000/svg">
<path d="M5.33203 8.00033C5.33203 7.6467 5.47251 7.30757 5.72256 7.05752C5.9726 6.80747 6.31174 6.66699 6.66536 6.66699H25.332C25.6857 6.66699 26.0248 6.80747 26.2748 7.05752C26.5249 7.30757 26.6654 7.6467 26.6654 8.00033C26.6654 8.35395 26.5249 8.69309 26.2748 8.94313C26.0248 9.19318 25.6857 9.33366 25.332 9.33366H6.66536C6.31174 9.33366 5.9726 9.19318 5.72256 8.94313C5.47251 8.69309 5.33203 8.35395 5.33203 8.00033ZM5.33203 24.0003C5.33203 23.6467 5.47251 23.3076 5.72256 23.0575C5.9726 22.8075 6.31174 22.667 6.66536 22.667H25.332C25.6857 22.667 26.0248 22.8075 26.2748 23.0575C26.5249 23.3076 26.6654 23.6467 26.6654 24.0003C26.6654 24.3539 26.5249 24.6931 26.2748 24.9431C26.0248 25.1932 25.6857 25.3337 25.332 25.3337H6.66536C6.31174 25.3337 5.9726 25.1932 5.72256 24.9431C5.47251 24.6931 5.33203 24.3539 5.33203 24.0003ZM14.6654 14.667C14.3117 14.667 13.9726 14.8075 13.7226 15.0575C13.4725 15.3076 13.332 15.6467 13.332 16.0003C13.332 16.3539 13.4725 16.6931 13.7226 16.9431C13.9726 17.1932 14.3117 17.3337 14.6654 17.3337H25.332C25.6857 17.3337 26.0248 17.1932 26.2748 16.9431C26.5249 16.6931 26.6654 16.3539 26.6654 16.0003C26.6654 15.6467 26.5249 15.3076 26.2748 15.0575C26.0248 14.8075 25.6857 14.667 25.332 14.667H14.6654Z" fill="white"/>
</svg>
