<svg width="17" height="17" viewBox="0 0 17 17" fill="none" xmlns="http://www.w3.org/2000/svg">
<path d="M9.60677 5.83333H8.60677V9.16667L11.4601 10.86L11.9401 10.0533L9.60677 8.66667V5.83333ZM9.27344 2.5C7.68214 2.5 6.15601 3.13214 5.0308 4.25736C3.90558 5.38258 3.27344 6.9087 3.27344 8.5H1.27344L3.91344 11.1867L6.60677 8.5H4.60677C4.60677 7.26232 5.09844 6.07534 5.97361 5.20017C6.84878 4.325 8.03576 3.83333 9.27344 3.83333C10.5111 3.83333 11.6981 4.325 12.5733 5.20017C13.4484 6.07534 13.9401 7.26232 13.9401 8.5C13.9401 9.73768 13.4484 10.9247 12.5733 11.7998C11.6981 12.675 10.5111 13.1667 9.27344 13.1667C7.98677 13.1667 6.8201 12.64 5.9801 11.7933L5.03344 12.74C5.58775 13.3004 6.24822 13.7447 6.97624 14.0469C7.70425 14.3491 8.4852 14.5031 9.27344 14.5C10.8647 14.5 12.3909 13.8679 13.5161 12.7426C14.6413 11.6174 15.2734 10.0913 15.2734 8.5C15.2734 6.9087 14.6413 5.38258 13.5161 4.25736C12.3909 3.13214 10.8647 2.5 9.27344 2.5Z" fill="#36334D"/>
</svg>
