<svg width="16" height="15" viewBox="0 0 16 15" fill="none" xmlns="http://www.w3.org/2000/svg">
<g clip-path="url(#clip0_1541_15763)">
<path d="M8.90238 4.29279C9.0899 4.10532 9.34421 4 9.60938 4C9.87454 4 10.1288 4.10532 10.3164 4.29279L14.8164 8.79279C15.0038 8.98031 15.1092 9.23462 15.1092 9.49979C15.1092 9.76495 15.0038 10.0193 14.8164 10.2068L10.3164 14.7068C10.1278 14.8889 9.87517 14.9897 9.61297 14.9875C9.35078 14.9852 9.09996 14.88 8.91456 14.6946C8.72915 14.5092 8.62398 14.2584 8.6217 13.9962C8.61942 13.734 8.72022 13.4814 8.90238 13.2928L11.6094 10.4998H2.10938C1.84416 10.4998 1.5898 10.3944 1.40227 10.2069C1.21473 10.0194 1.10938 9.765 1.10938 9.49979C1.10938 9.23457 1.21473 8.98022 1.40227 8.79268C1.5898 8.60514 1.84416 8.49979 2.10938 8.49979H11.6094L8.90238 5.70679C8.7149 5.51926 8.60959 5.26495 8.60959 4.99979C8.60959 4.73462 8.7149 4.48031 8.90238 4.29279Z" fill="url(#paint0_linear_1541_15763)"/>
</g>
<defs>
<linearGradient id="paint0_linear_1541_15763" x1="8.10927" y1="4" x2="8.10927" y2="14.9875" gradientUnits="userSpaceOnUse">
<stop stop-color="#3B3898"/>
<stop offset="1" stop-color="#5B489B"/>
</linearGradient>
<clipPath id="clip0_1541_15763">
<rect width="15" height="15" fill="white" transform="translate(0.609375)"/>
</clipPath>
</defs>
</svg>
