<svg width="22" height="35" viewBox="0 0 22 35" fill="none" xmlns="http://www.w3.org/2000/svg">
<g clip-path="url(#clip0_1448_30233)">
<path d="M0.875224 6.45898C0.875224 5.28359 1.81366 4.33398 2.97522 4.33398H19.7752C20.9368 4.33398 21.8752 5.28359 21.8752 6.45898C21.8752 7.63438 20.9368 8.58398 19.7752 8.58398H16.0871C16.7171 9.54023 17.183 10.616 17.4455 11.7715H19.7752C20.9368 11.7715 21.8752 12.7211 21.8752 13.8965C21.8752 15.0719 20.9368 16.0215 19.7752 16.0215H17.439C16.5727 19.893 13.3768 22.8746 9.4196 23.3859L18.8959 30.2324C19.8409 30.9164 20.0574 32.2445 19.3815 33.1941C18.7055 34.1438 17.393 34.3695 16.4546 33.6855L1.7546 23.0605C1.01304 22.5293 0.698036 21.5664 0.973661 20.6832C1.24929 19.8 2.06304 19.209 2.97522 19.209H8.22522C10.3777 19.209 12.2284 17.9008 13.0355 16.0215H2.97522C1.81366 16.0215 0.875224 15.0719 0.875224 13.8965C0.875224 12.7211 1.81366 11.7715 2.97522 11.7715H13.0355C12.2284 9.89219 10.3777 8.58398 8.22522 8.58398H2.97522C1.81366 8.58398 0.875224 7.63438 0.875224 6.45898Z" fill="#FFD300"/>
</g>
<defs>
<clipPath id="clip0_1448_30233">
<rect width="21" height="34" fill="white" transform="translate(0.875 0.333984)"/>
</clipPath>
</defs>
</svg>
