<svg width="26" height="42" viewBox="0 0 26 42" fill="none" xmlns="http://www.w3.org/2000/svg">
<g clip-path="url(#clip0_1518_15880)">
<path d="M0.109643 8.07197C0.109643 6.66339 1.23426 5.52539 2.62626 5.52539H22.7592C24.1512 5.52539 25.2759 6.66339 25.2759 8.07197C25.2759 9.48055 24.1512 10.6186 22.7592 10.6186H18.3394C19.0944 11.7645 19.6528 13.0537 19.9674 14.4384H22.7592C24.1512 14.4384 25.2759 15.5764 25.2759 16.985C25.2759 18.3936 24.1512 19.5316 22.7592 19.5316H19.9595C18.9214 24.1711 15.0914 27.7443 10.3491 28.3571L21.7054 36.5618C22.8379 37.3815 23.0974 38.9731 22.2874 40.1111C21.4773 41.2492 19.9044 41.5197 18.7798 40.7L1.16348 27.9671C0.274797 27.3305 -0.102697 26.1766 0.22761 25.1182C0.557916 24.0597 1.53311 23.3515 2.62626 23.3515H8.91782C11.4974 23.3515 13.7151 21.7837 14.6825 19.5316H2.62626C1.23426 19.5316 0.109643 18.3936 0.109643 16.985C0.109643 15.5764 1.23426 14.4384 2.62626 14.4384H14.6825C13.7151 12.1863 11.4974 10.6186 8.91782 10.6186H2.62626C1.23426 10.6186 0.109643 9.48055 0.109643 8.07197Z" fill="#36334D"/>
</g>
<defs>
<clipPath id="clip0_1518_15880">
<rect width="25.1662" height="40.7453" fill="white" transform="translate(0.109375 0.732422)"/>
</clipPath>
</defs>
</svg>
