<svg width="10" height="14" viewBox="0 0 10 14" fill="none" xmlns="http://www.w3.org/2000/svg">
<g clip-path="url(#clip0_1448_30009)">
<path d="M0.609468 1.75C0.609468 1.26602 1.00048 0.875 1.48447 0.875H8.48447C8.96845 0.875 9.35947 1.26602 9.35947 1.75C9.35947 2.23398 8.96845 2.625 8.48447 2.625H6.94775C7.21025 3.01875 7.40439 3.46172 7.51377 3.9375H8.48447C8.96845 3.9375 9.35947 4.32852 9.35947 4.8125C9.35947 5.29648 8.96845 5.6875 8.48447 5.6875H7.51103C7.15009 7.28164 5.81845 8.50937 4.16962 8.71992L8.11806 11.5391C8.51181 11.8207 8.60205 12.3676 8.32041 12.7586C8.03877 13.1496 7.49189 13.2426 7.10087 12.9609L0.975875 8.58594C0.66689 8.36719 0.53564 7.9707 0.650484 7.60703C0.765328 7.24336 1.10439 7 1.48447 7H3.67197C4.56884 7 5.33994 6.46133 5.67627 5.6875H1.48447C1.00048 5.6875 0.609468 5.29648 0.609468 4.8125C0.609468 4.32852 1.00048 3.9375 1.48447 3.9375H5.67627C5.33994 3.16367 4.56884 2.625 3.67197 2.625H1.48447C1.00048 2.625 0.609468 2.23398 0.609468 1.75Z" fill="#36334D" stroke="#36334D" stroke-width="0.5"/>
</g>
<defs>
<clipPath id="clip0_1448_30009">
<rect width="8.75" height="14" fill="white" transform="translate(0.609375)"/>
</clipPath>
</defs>
</svg>
