<svg width="25" height="24" viewBox="0 0 25 24" fill="none" xmlns="http://www.w3.org/2000/svg">
<g clip-path="url(#clip0_2577_8833)">
<path fill-rule="evenodd" clip-rule="evenodd" d="M11.2822 3C10.0586 3.0001 8.85275 3.29281 7.76528 3.85371C6.6778 4.4146 5.74023 5.22741 5.03079 6.22433C4.32135 7.22124 3.8606 8.37336 3.687 9.58455C3.5134 10.7957 3.63197 12.0309 4.03282 13.1869C4.43367 14.343 5.10519 15.3864 5.99133 16.2302C6.87747 17.0739 7.95256 17.6935 9.12688 18.0373C10.3012 18.3811 11.5407 18.4391 12.742 18.2064C13.9433 17.9737 15.0715 17.4572 16.0326 16.6998L19.3295 19.9966C19.4997 20.161 19.7278 20.252 19.9645 20.25C20.2012 20.2479 20.4276 20.153 20.595 19.9856C20.7623 19.8182 20.8573 19.5918 20.8593 19.3551C20.8614 19.1184 20.7704 18.8904 20.606 18.7201L17.3091 15.4234C18.201 14.2919 18.7563 12.9322 18.9116 11.4999C19.0668 10.0675 18.8156 8.62041 18.1868 7.32416C17.5579 6.02791 16.5768 4.93487 15.3558 4.17015C14.1347 3.40542 12.723 2.9999 11.2822 3ZM5.41425 10.6732C5.41425 9.11698 6.03248 7.6245 7.13294 6.52408C8.23339 5.42367 9.72593 4.80546 11.2822 4.80546C12.8385 4.80546 14.331 5.42367 15.4315 6.52408C16.5319 7.6245 17.1502 9.11698 17.1502 10.6732C17.1502 12.2294 16.5319 13.7219 15.4315 14.8223C14.331 15.9227 12.8385 16.5409 11.2822 16.5409C9.72593 16.5409 8.23339 15.9227 7.13294 14.8223C6.03248 13.7219 5.41425 12.2294 5.41425 10.6732Z" fill="#36334D"/>
</g>
<defs>
<clipPath id="clip0_2577_8833">
<rect width="24" height="24" fill="white" transform="translate(0.609375)"/>
</clipPath>
</defs>
</svg>
