<svg width="30" height="31" viewBox="0 0 30 31" fill="none" xmlns="http://www.w3.org/2000/svg">
<g clip-path="url(#clip0_1448_31076)">
<path d="M3.03321 1.08001C3.18082 0.995572 3.34806 0.951476 3.51812 0.952156C3.68818 0.952836 3.85506 0.998269 4.002 1.08389L19.1984 9.94831L14.4959 14.18L2.54688 3.42642V1.92092C2.54673 1.75035 2.59163 1.58276 2.67703 1.43511C2.76242 1.28745 2.88529 1.16496 3.03321 1.08001ZM2.54688 6.0344V24.9335L13.0485 15.484L2.54688 6.0344ZM2.54688 27.5415V29.047C2.54682 29.2175 2.59175 29.3849 2.67712 29.5325C2.76249 29.68 2.88528 29.8024 3.03309 29.8873C3.1809 29.9723 3.34849 30.0167 3.51895 30.0161C3.68941 30.0155 3.85671 29.97 4.00393 29.8841L19.1984 21.0196L14.4959 16.788L2.54688 27.5415ZM20.9558 19.9947L27.2529 16.321C27.3993 16.2357 27.5207 16.1135 27.6051 15.9667C27.6895 15.8198 27.7339 15.6534 27.7339 15.484C27.7339 15.3146 27.6895 15.1481 27.6051 15.0013C27.5207 14.8544 27.3993 14.7322 27.2529 14.6469L20.9558 10.9733L15.9433 15.484L20.9558 19.9947Z" fill="#111111"/>
</g>
<defs>
<clipPath id="clip0_1448_31076">
<rect width="29.0637" height="29.0637" fill="white" transform="translate(0.609375 0.952148)"/>
</clipPath>
</defs>
</svg>
