<svg width="16" height="16" viewBox="0 0 16 16" fill="none" xmlns="http://www.w3.org/2000/svg">
<path d="M13.23 5.61508C13.0569 5.21414 12.8072 4.85082 12.495 4.54546C12.1825 4.23917 11.8142 3.99578 11.4099 3.8285C10.9907 3.65434 10.541 3.5652 10.0871 3.56626C9.45019 3.56626 8.82883 3.74066 8.28885 4.07007C8.15967 4.14887 8.03695 4.23542 7.92068 4.32972C7.80442 4.23542 7.6817 4.14887 7.55252 4.07007C7.01254 3.74066 6.39117 3.56626 5.75431 3.56626C5.29572 3.56626 4.85133 3.6541 4.43149 3.8285C4.02586 3.99643 3.66028 4.238 3.34637 4.54546C3.03373 4.85047 2.784 5.21388 2.61133 5.61508C2.43176 6.03233 2.34004 6.47543 2.34004 6.93144C2.34004 7.36161 2.42789 7.80987 2.60228 8.26588C2.74826 8.64697 2.95753 9.04226 3.22494 9.44143C3.64865 10.0731 4.23126 10.732 4.95468 11.3998C6.15348 12.5069 7.34066 13.2717 7.39104 13.3027L7.6972 13.499C7.83284 13.5856 8.00723 13.5856 8.14288 13.499L8.44904 13.3027C8.49942 13.2704 9.6853 12.5069 10.8854 11.3998C11.6088 10.732 12.1914 10.0731 12.6151 9.44143C12.8825 9.04226 13.0931 8.64697 13.2378 8.26588C13.4122 7.80987 13.5 7.36161 13.5 6.93144C13.5013 6.47543 13.4096 6.03233 13.23 5.61508Z" fill="#E53935"/>
</svg>
