<svg width="121" height="120" viewBox="0 0 121 120" fill="none" xmlns="http://www.w3.org/2000/svg">
<path d="M4.25 114.375L20.375 108.75L8.1875 103.125L4.25 114.375Z" fill="#F7B600"/>
<path d="M50.937 68.248L28.2495 45.373L24.4995 55.873L50.937 68.248Z" fill="#FFDD7D"/>
<path d="M24.5002 55.877L20.3752 67.6895L70.6252 91.127L73.0627 90.377L50.9377 68.252L24.5002 55.877Z" fill="#F7B600"/>
<path d="M16.4375 79.4995L53.9375 96.937L70.625 91.1245L20.375 67.687L16.4375 79.4995Z" fill="#FFDD7D"/>
<path d="M12.312 91.313L37.062 102.938L53.937 96.938L16.437 79.5005L12.312 91.313Z" fill="#F7B600"/>
<path d="M12.3125 91.3105L8.1875 103.123L20.375 108.748L37.0625 102.936L12.3125 91.3105Z" fill="#FFDD7D"/>
<path d="M60.3126 58.4997C72.8751 70.8747 79.4376 84.7497 74.9376 89.2497C70.2501 93.7497 56.3751 87.3747 43.6251 74.8122C31.0626 62.4372 24.5001 48.5622 29.0001 44.0622C33.6876 39.5622 47.5626 46.1247 60.3126 58.4997Z" fill="#493816"/>
<path d="M44.5625 27.1875C41.5625 22.875 44.75 21 48.875 21.75C44.9375 17.0625 47.375 13.6875 53.5625 15C55.4375 15.375 52.8125 18.5625 51.125 18.5625C56.1875 22.3125 53.375 26.4375 47.9375 25.5C52.8125 32.0625 44.5625 30.375 40.8125 30.75C39.875 35.625 45.5 41.25 43.625 41.25C39.5 41.25 32.75 25.6875 44.5625 27.1875Z" fill="#42ADE2"/>
<path d="M83.9373 36.1871C81.1248 37.4996 73.2498 25.1246 82.9998 24.9371C77.3748 19.8746 78.1248 17.4371 85.6248 17.2496C76.9998 8.62461 90.6873 5.62461 91.9998 10.1246C92.3748 11.4371 87.8748 8.99961 86.3748 11.4371C84.6873 14.2496 96.8748 21.5621 84.3123 20.9996C88.9998 25.6871 89.1873 27.9371 81.8748 28.6871C82.8123 30.1871 85.8123 35.4371 83.9373 36.1871Z" fill="#FF8736"/>
<path d="M87.1255 65.437L89.938 62.9995C89.938 62.9995 92.563 66.937 94.438 68.437C95.938 61.687 95.563 57.7495 103.25 62.2495C98.938 50.6245 106.063 54.937 113 58.1245C112.625 55.1245 113 55.4995 116 54.562C118.625 64.4995 111.5 61.4995 105.875 58.312C109.25 67.312 105.688 66.7495 98.563 63.7495C98.3755 67.4995 97.2505 71.812 95.0005 72.187C92.3755 72.937 87.1255 65.437 87.1255 65.437Z" fill="#ED4C5C"/>
<path d="M66.1255 37.6875C62.7505 42.1875 57.313 44.625 53.3755 48.5625C49.2505 52.6875 46.813 63.9375 46.813 63.9375C46.813 63.9375 48.313 52.125 52.2505 47.625C55.813 43.5 61.063 40.5 63.8755 35.8125C68.7505 27.1875 64.2505 15.9375 57.8755 9.375C59.188 8.25 61.063 6.75 62.0005 5.625C68.188 13.3125 73.438 28.125 66.1255 37.6875Z" fill="#C28FEF"/>
<path d="M71.9377 47.2498C67.0627 50.8123 63.5002 56.0623 60.1252 60.9373C57.1252 65.2498 47.5627 70.6873 47.5627 70.6873C47.5627 70.6873 56.5627 64.4998 59.3752 59.9998C62.7502 54.3748 66.1252 48.5623 71.3752 44.4373C81.8752 36.3748 97.0627 37.1248 108.875 41.4373C108.125 43.1248 106.813 46.6873 106.813 46.6873C106.813 46.6873 81.8752 39.9373 71.9377 47.2498Z" fill="#FF8736"/>
<path d="M92.7501 46.3127C89.5626 50.4377 88.0626 55.5002 85.6251 60.1877C83.3751 64.5002 80.375 68.6252 76.0625 70.8752C71.1875 73.3127 60.5 72.5627 60.5 72.5627C60.5 72.5627 71.1875 72.3752 75.6875 69.3752C80.1875 66.3752 82.6251 61.1252 84.3126 56.2502C87.6876 46.8752 91.8126 36.7502 101.563 32.6252C102.125 34.3127 103.438 37.8752 103.438 37.8752C103.438 37.8752 98.0001 39.3752 92.7501 46.3127ZM6.5188 26.8595L11.8213 21.5552L17.1257 26.8577L11.8232 32.1639L6.5188 26.8595Z" fill="#42ADE2"/>
<path d="M13.949 43.4944L19.2496 38.1919L24.5521 43.4944L19.2496 48.7969L13.949 43.4944Z" fill="#FF8736"/>
<path d="M27.4211 18.4163L32.7236 13.1138L38.0261 18.4163L32.7236 23.7188L27.4211 18.4163Z" fill="#ED4C5C"/>
<path d="M85.2595 81.9303L90.562 76.626L95.8645 81.9303L90.562 87.2328L85.2595 81.9303Z" fill="#C28FEF"/>
<path d="M73.4429 100.107L78.7454 94.8047L84.0497 100.109L78.7454 105.412L73.4429 100.107Z" fill="#ED4C5C"/>
<path d="M96.6477 104.262L101.95 98.9575L107.253 104.262L101.95 109.564L96.6477 104.262Z" fill="#FF8736"/>
<path d="M101.896 80.1206L107.199 74.8181L112.501 80.1206L107.199 85.425L101.896 80.1206ZM93.0425 24.0431L98.345 18.7388L103.649 24.0431L98.3469 29.3456L93.0425 24.0431Z" fill="#42ADE2"/>
<path d="M36.2075 55.8616L41.5119 50.5591L46.8144 55.8616L41.5119 61.166L36.2075 55.8616Z" fill="#ED4C5C"/>
</svg>
