<svg width="16" height="18" viewBox="0 0 16 18" fill="none" xmlns="http://www.w3.org/2000/svg">
<g clip-path="url(#clip0_1448_40131)">
<path d="M6.19922 8.5C6.61172 8.5 6.96497 8.353 7.25897 8.059C7.55297 7.765 7.69972 7.412 7.69922 7C7.69922 6.5875 7.55222 6.23425 7.25822 5.94025C6.96422 5.64625 6.61122 5.4995 6.19922 5.5C5.78672 5.5 5.43347 5.647 5.13947 5.941C4.84547 6.235 4.69872 6.588 4.69922 7C4.69922 7.4125 4.84622 7.76575 5.14022 8.05975C5.43422 8.35375 5.78722 8.5005 6.19922 8.5ZM6.19922 16C4.18672 14.2875 2.68372 12.697 1.69022 11.2285C0.696719 9.76 0.199719 8.4005 0.199219 7.15C0.199219 5.275 0.802469 3.78125 2.00897 2.66875C3.21547 1.55625 4.61222 1 6.19922 1C7.78672 1 9.18372 1.55625 10.3902 2.66875C11.5967 3.78125 12.1997 5.275 12.1992 7.15C12.1992 8.4 11.7022 9.7595 10.7082 11.2285C9.71422 12.6975 8.21122 14.288 6.19922 16Z" fill="#00A6CC"/>
</g>
<defs>
<clipPath id="clip0_1448_40131">
<rect width="15" height="18" fill="white" transform="translate(0.199219)"/>
</clipPath>
</defs>
</svg>
