<svg width="25" height="25" viewBox="0 0 25 25" fill="none" xmlns="http://www.w3.org/2000/svg">
<path d="M13.638 2.21217C14.3677 2.20937 15.0974 2.2167 15.827 2.23417L16.021 2.24117C16.245 2.24917 16.466 2.25917 16.733 2.27117C17.797 2.32117 18.523 2.48917 19.16 2.73617C19.82 2.99017 20.376 3.33417 20.932 3.89017C21.4403 4.38977 21.8338 4.99411 22.085 5.66117C22.332 6.29817 22.5 7.02517 22.55 8.08917C22.562 8.35517 22.572 8.57717 22.58 8.80117L22.586 8.99517C22.6037 9.72436 22.6114 10.4538 22.609 11.1832L22.61 11.9292V13.2392C22.6124 13.9689 22.6047 14.6986 22.587 15.4282L22.581 15.6222C22.573 15.8462 22.563 16.0672 22.551 16.3342C22.501 17.3982 22.331 18.1242 22.085 18.7612C21.8346 19.4289 21.441 20.0338 20.932 20.5332C20.4319 21.0415 19.8273 21.4349 19.16 21.6862C18.523 21.9332 17.797 22.1012 16.733 22.1512C16.466 22.1632 16.245 22.1732 16.021 22.1812L15.827 22.1872C15.0974 22.2049 14.3677 22.2126 13.638 22.2102L12.892 22.2112H11.583C10.8532 22.2136 10.1235 22.206 9.39395 22.1882L9.19995 22.1822C8.96256 22.1736 8.72522 22.1636 8.48795 22.1522C7.42395 22.1022 6.69795 21.9322 6.05995 21.6862C5.39264 21.4355 4.78819 21.042 4.28895 20.5332C3.78 20.0335 3.38618 19.4287 3.13495 18.7612C2.88795 18.1242 2.71995 17.3982 2.66995 16.3342C2.65881 16.0969 2.64881 15.8595 2.63995 15.6222L2.63495 15.4282C2.61652 14.6987 2.60818 13.9689 2.60995 13.2392V11.1832C2.60716 10.4538 2.6145 9.72436 2.63195 8.99517L2.63895 8.80117C2.64695 8.57717 2.65695 8.35517 2.66895 8.08917C2.71895 7.02417 2.88695 6.29917 3.13395 5.66117C3.38532 4.99379 3.77992 4.38961 4.28995 3.89117C4.78885 3.38192 5.39291 2.98774 6.05995 2.73617C6.69795 2.48917 7.42295 2.32117 8.48795 2.27117L9.19995 2.24117L9.39395 2.23617C10.1231 2.21774 10.8525 2.20941 11.582 2.21117L13.638 2.21217ZM12.61 7.21217C11.9475 7.2028 11.2897 7.32519 10.6749 7.57224C10.0601 7.81928 9.5006 8.18605 9.0288 8.65122C8.557 9.1164 8.18235 9.67071 7.92664 10.2819C7.67093 10.8932 7.53924 11.5491 7.53924 12.2117C7.53924 12.8742 7.67093 13.5302 7.92664 14.1414C8.18235 14.7526 8.557 15.3069 9.0288 15.7721C9.5006 16.2373 10.0601 16.6041 10.6749 16.8511C11.2897 17.0981 11.9475 17.2205 12.61 17.2112C13.936 17.2112 15.2078 16.6844 16.1455 15.7467C17.0832 14.809 17.61 13.5373 17.61 12.2112C17.61 10.8851 17.0832 9.61332 16.1455 8.67563C15.2078 7.73795 13.936 7.21217 12.61 7.21217ZM12.61 9.21217C13.0085 9.20483 13.4044 9.27697 13.7747 9.42438C14.1451 9.57178 14.4823 9.79151 14.7667 10.0707C15.0512 10.3499 15.2771 10.683 15.4314 11.0505C15.5857 11.418 15.6652 11.8126 15.6652 12.2112C15.6653 12.6097 15.5859 13.0043 15.4318 13.3719C15.2776 13.7394 15.0518 14.0726 14.7674 14.3519C14.4831 14.6312 14.1459 14.851 13.7757 14.9986C13.4054 15.1461 13.0095 15.2184 12.611 15.2112C11.8153 15.2112 11.0522 14.8951 10.4896 14.3325C9.92702 13.7699 9.61095 13.0068 9.61095 12.2112C9.61095 11.4155 9.92702 10.6525 10.4896 10.0898C11.0522 9.52724 11.8153 9.21117 12.611 9.21117L12.61 9.21217ZM17.86 5.71217C17.5373 5.72508 17.2322 5.86232 17.0086 6.09514C16.7849 6.32796 16.6599 6.6383 16.6599 6.96117C16.6599 7.28403 16.7849 7.59438 17.0086 7.8272C17.2322 8.06002 17.5373 8.19726 17.86 8.21017C18.1915 8.21017 18.5094 8.07847 18.7438 7.84405C18.9783 7.60963 19.11 7.29169 19.11 6.96017C19.11 6.62865 18.9783 6.31071 18.7438 6.07628C18.5094 5.84186 18.1915 5.71017 17.86 5.71017V5.71217Z" fill="#FFD300"/>
</svg>
