<svg width="25" height="25" viewBox="0 0 25 25" fill="none" xmlns="http://www.w3.org/2000/svg">
<path d="M23.0684 6.21094C22.2984 6.56094 21.4684 6.79094 20.6084 6.90094C21.4884 6.37094 22.1684 5.53094 22.4884 4.52094C21.6584 5.02094 20.7384 5.37094 19.7684 5.57094C18.9784 4.71094 17.8684 4.21094 16.6084 4.21094C14.2584 4.21094 12.3384 6.13094 12.3384 8.50094C12.3384 8.84094 12.3784 9.17094 12.4484 9.48094C8.88844 9.30094 5.71844 7.59094 3.60844 5.00094C3.23844 5.63094 3.02844 6.37094 3.02844 7.15094C3.02844 8.64094 3.77844 9.96094 4.93844 10.7109C4.22844 10.7109 3.56844 10.5109 2.98844 10.2109V10.2409C2.98844 12.3209 4.46844 14.0609 6.42844 14.4509C5.79916 14.6231 5.13853 14.6471 4.49844 14.5209C4.77004 15.3734 5.30197 16.1193 6.01945 16.6539C6.73693 17.1884 7.60388 17.4846 8.49844 17.5009C6.98207 18.7014 5.10243 19.3503 3.16844 19.3409C2.82844 19.3409 2.48844 19.3209 2.14844 19.2809C4.04844 20.5009 6.30844 21.2109 8.72844 21.2109C16.6084 21.2109 20.9384 14.6709 20.9384 9.00094C20.9384 8.81094 20.9384 8.63094 20.9284 8.44094C21.7684 7.84094 22.4884 7.08094 23.0684 6.21094Z" fill="#FFD300"/>
</svg>
