<svg width="27" height="27" viewBox="0 0 27 27" fill="none" xmlns="http://www.w3.org/2000/svg">
<path d="M25.5304 10.7302C25.584 9.17958 25.2448 7.64056 24.5445 6.25604C24.0694 5.68794 23.41 5.30456 22.6812 5.17271C19.6669 4.89919 16.64 4.78709 13.6137 4.83688C10.5984 4.78483 7.58248 4.89332 4.57872 5.16188C3.98486 5.2699 3.43528 5.54845 2.99705 5.96354C2.02205 6.86271 1.91372 8.40104 1.80538 9.70104C1.64821 12.0384 1.64821 14.3837 1.80538 16.721C1.83672 17.4527 1.94567 18.179 2.13038 18.8877C2.26101 19.4349 2.52528 19.9411 2.89955 20.361C3.34076 20.7981 3.90313 21.0925 4.51372 21.206C6.84929 21.4943 9.20262 21.6138 11.5554 21.5635C15.347 21.6177 18.6729 21.5635 22.6054 21.2602C23.231 21.1537 23.8092 20.8589 24.2629 20.4152C24.5662 20.1118 24.7927 19.7404 24.9237 19.3319C25.3111 18.143 25.5014 16.8988 25.487 15.6485C25.5304 15.0419 25.5304 11.3802 25.5304 10.7302ZM11.1654 16.2985V9.59271L17.5787 12.9619C15.7804 13.9585 13.4079 15.0852 11.1654 16.2985Z" fill="#FFD300"/>
</svg>
