<svg width="49" height="32" viewBox="0 0 49 32" fill="none" xmlns="http://www.w3.org/2000/svg">
<path d="M39.2 12.08C38.5282 8.67544 36.6952 5.60972 34.0141 3.40649C31.3331 1.20327 27.9702 -0.000784485 24.5 3.83473e-07C18.72 3.83473e-07 13.7 3.28 11.2 8.08C8.26047 8.39766 5.54201 9.79042 3.56698 11.9906C1.59194 14.1909 0.499657 17.0434 0.5 20C0.5 26.62 5.88 32 12.5 32H38.5C44.02 32 48.5 27.52 48.5 22C48.5 16.72 44.4 12.44 39.2 12.08ZM28.5 18V26H20.5V18H14.5L23.8 8.7C24.2 8.3 24.82 8.3 25.22 8.7L34.5 18H28.5Z" fill="#292C93"/>
</svg>
