<svg width="15" height="16" viewBox="0 0 15 16" fill="none" xmlns="http://www.w3.org/2000/svg">
<path d="M6.83127 15.3001V13.9667C5.44238 13.8112 4.2506 13.2363 3.25594 12.2421C2.26127 11.2479 1.68638 10.0561 1.53127 8.66674H0.197937V7.33341H1.53127C1.68683 5.94452 2.26194 4.75274 3.2566 3.75807C4.25127 2.76341 5.44283 2.18852 6.83127 2.03341V0.700073H8.1646V2.03341C9.55349 2.18896 10.7453 2.76407 11.7399 3.75874C12.7346 4.75341 13.3095 5.94496 13.4646 7.33341H14.7979V8.66674H13.4646C13.309 10.0556 12.7342 11.2474 11.7399 12.2421C10.7457 13.2367 9.55394 13.8116 8.1646 13.9667V15.3001H6.83127ZM7.49794 12.6667C8.78683 12.6667 9.88683 12.2112 10.7979 11.3001C11.709 10.389 12.1646 9.28896 12.1646 8.00007C12.1646 6.71118 11.709 5.61118 10.7979 4.70007C9.88683 3.78896 8.78683 3.33341 7.49794 3.33341C6.20905 3.33341 5.10905 3.78896 4.19794 4.70007C3.28683 5.61118 2.83127 6.71118 2.83127 8.00007C2.83127 9.28896 3.28683 10.389 4.19794 11.3001C5.10905 12.2112 6.20905 12.6667 7.49794 12.6667ZM7.49794 10.6667C6.7646 10.6667 6.13683 10.4056 5.6146 9.88341C5.09238 9.36118 4.83127 8.73341 4.83127 8.00007C4.83127 7.26674 5.09238 6.63896 5.6146 6.11674C6.13683 5.59452 6.7646 5.33341 7.49794 5.33341C8.23127 5.33341 8.85905 5.59452 9.38127 6.11674C9.90349 6.63896 10.1646 7.26674 10.1646 8.00007C10.1646 8.73341 9.90349 9.36118 9.38127 9.88341C8.85905 10.4056 8.23127 10.6667 7.49794 10.6667Z" fill="url(#paint0_linear_3224_878)"/>
<defs>
<linearGradient id="paint0_linear_3224_878" x1="0.101618" y1="1.16631" x2="16.4493" y2="3.44321" gradientUnits="userSpaceOnUse">
<stop stop-color="#3B3898"/>
<stop offset="1" stop-color="#5D499C"/>
</linearGradient>
</defs>
</svg>
