<svg width="241" height="240" viewBox="0 0 241 240" fill="none" xmlns="http://www.w3.org/2000/svg">
<mask id="mask0_1448_41267" style="mask-type:luminance" maskUnits="userSpaceOnUse" x="24" y="18" width="193" height="204">
<path d="M118.138 21.7197C119.543 20.6951 121.448 20.6951 122.853 21.7197L145.704 38.3891C146.39 38.89 147.219 39.1592 148.069 39.1576L176.358 39.1054C178.096 39.1022 179.638 40.2223 180.172 41.8769L188.859 68.7949C189.12 69.6039 189.632 70.3087 190.321 70.807L213.237 87.3895C214.645 88.4086 215.234 90.2209 214.694 91.8733L205.902 118.757C205.638 119.565 205.638 120.435 205.902 121.243L214.694 148.127C215.234 149.779 214.645 151.591 213.237 152.611L190.321 169.193C189.632 169.691 189.12 170.396 188.859 171.205L180.172 198.123C179.638 199.778 178.096 200.898 176.358 200.895L148.069 200.842C147.219 200.841 146.39 201.11 145.704 201.611L122.853 218.28C121.448 219.305 119.543 219.305 118.138 218.28L95.2874 201.611C94.6008 201.11 93.7725 200.841 92.9226 200.842L64.6335 200.895C62.895 200.898 61.3534 199.778 60.8195 198.123L52.1324 171.205C51.8714 170.396 51.3594 169.691 50.6707 169.193L27.7545 152.611C26.346 151.591 25.7572 149.779 26.2976 148.127L35.089 121.243C35.3532 120.435 35.3532 119.565 35.089 118.757L26.2976 91.8733C25.7572 90.2209 26.346 88.4086 27.7545 87.3895L50.6707 70.807C51.3594 70.3087 51.8714 69.6039 52.1324 68.7949L60.8195 41.8769C61.3534 40.2223 62.895 39.1022 64.6335 39.1054L92.9226 39.1576C93.7725 39.1592 94.6008 38.89 95.2874 38.3891L118.138 21.7197Z" fill="white" stroke="white" stroke-width="4" stroke-linecap="round" stroke-linejoin="round"/>
<path d="M85.5 120L110.5 145L160.5 95" stroke="black" stroke-width="24" stroke-linecap="round" stroke-linejoin="round"/>
</mask>
<g mask="url(#mask0_1448_41267)">
<path d="M0.5 0H240.5V240H0.5V0Z" fill="#1AC536"/>
</g>
</svg>
