<svg width="137" height="139" viewBox="0 0 137 139" fill="none" xmlns="http://www.w3.org/2000/svg">
<path d="M134.518 75.8627C135.798 77.8443 136.409 80.0634 136.409 82.26C136.409 86.2342 134.405 90.1294 130.747 92.3599C127.204 94.5225 125.097 98.361 125.097 102.437C125.097 102.924 125.131 103.411 125.188 103.909C125.256 104.407 125.279 104.906 125.279 105.392C125.279 111.371 120.749 116.523 114.635 117.134C112.325 117.361 110.185 118.267 108.441 119.659C106.698 121.052 105.35 122.932 104.614 125.14C102.95 130.088 98.3415 133.19 93.416 133.19C92.0685 133.19 90.6986 132.964 89.3625 132.477C88.7058 132.239 88.0378 132.058 87.3585 131.945C86.6791 131.82 85.9998 131.764 85.3204 131.764C82.1951 131.764 79.1267 133.009 76.8624 135.33C74.5524 137.708 71.4728 138.897 68.4042 138.897C65.3358 138.897 62.2557 137.708 59.9462 135.33C57.6816 133.009 54.613 131.764 51.488 131.764C50.1294 131.764 48.7593 132.001 47.4457 132.477C46.1096 132.964 44.7395 133.19 43.3923 133.19C38.4669 133.19 33.8585 130.087 32.1941 125.14C31.4581 122.932 30.1108 121.052 28.367 119.659C26.6233 118.267 24.4833 117.361 22.1735 117.134C16.0591 116.523 11.5301 111.371 11.5301 105.392C11.5301 104.906 11.5527 104.407 11.6206 103.909C11.6773 103.411 11.7113 102.924 11.7113 102.437C11.7113 98.3611 9.60515 94.5227 6.0612 92.3599C2.40394 90.1294 0.399902 86.2342 0.399902 82.26C0.399902 80.0634 1.01138 77.8441 2.29062 75.8627C3.55882 73.9039 4.18152 71.6846 4.18152 69.4427C4.18152 67.2235 3.55882 64.9816 2.29062 63.0342C1.01119 61.0526 0.399902 58.8333 0.399902 56.6369C0.399902 52.6626 2.40394 48.7789 6.0612 46.5482C9.60515 44.3854 11.7113 40.5357 11.7113 36.4596C11.7113 35.9728 11.6773 35.4859 11.6206 34.9878C11.5527 34.4894 11.5301 33.9912 11.5301 33.5045C11.5301 27.526 16.0591 22.3741 22.1735 21.7626C24.4833 21.5248 26.6233 20.6304 28.367 19.2376C30.1108 17.8561 31.4583 15.9768 32.1941 13.7687C33.8585 8.82061 38.4783 5.70694 43.4038 5.70694C44.7511 5.70694 46.1098 5.9334 47.4459 6.42015C48.7593 6.90689 50.1294 7.13353 51.4881 7.13353C54.6132 7.13353 57.6818 5.88795 59.9463 3.56677C62.2561 1.18892 65.3359 0 68.4044 0C71.473 0 74.5526 1.18892 76.8626 3.56677C80.112 6.89568 85.0036 8.01672 89.3627 6.42015C90.699 5.9334 92.0575 5.70694 93.405 5.70694C98.3305 5.70694 102.95 8.82061 104.615 13.7687C105.351 15.9768 106.698 17.8561 108.442 19.2376C110.185 20.6302 112.326 21.5248 114.635 21.7626C120.75 22.3741 125.279 27.526 125.279 33.5045C125.279 33.9912 125.256 34.4894 125.188 34.9878C125.132 35.4859 125.098 35.9728 125.098 36.4596C125.098 40.5359 127.204 44.3854 130.748 46.5482C134.405 48.7787 136.409 52.6624 136.409 56.6369C136.409 58.8333 135.798 61.0528 134.519 63.0342C133.25 64.9816 132.628 67.2237 132.628 69.4427C132.628 70.6769 132.82 71.9111 133.205 73.1C133.51 74.0623 133.952 74.9909 134.518 75.8627Z" fill="#1AC536"/>
<path d="M136.41 84.7263C136.41 88.5082 134.505 92.2147 131.029 94.3372C127.661 96.3951 124.591 98.9793 124.591 102.858C124.591 103.321 124.624 103.785 124.677 104.259C124.742 104.733 124.764 105.207 124.764 105.67C124.764 111.359 120.459 116.262 114.648 116.844C112.453 117.059 111.488 118.99 109.831 120.315C108.174 121.64 106.893 123.429 106.194 125.53C104.612 130.238 100.232 133.19 95.5516 133.19C94.271 133.19 92.9691 132.975 91.6993 132.512C91.0752 132.285 90.4404 132.113 89.7948 132.005L36.95 79.1021C34.2276 76.3654 34.2276 71.9263 36.95 69.2004C37.1222 69.0279 37.2944 68.8663 37.4772 68.7155C40.2213 66.4743 44.278 66.6252 46.8495 69.2004L60.2142 82.5823L95.1215 47.6296C95.2935 47.4681 95.4657 47.3065 95.6488 47.1556C98.3928 44.9036 102.449 45.0653 105.021 47.6296L133.365 76.0098C133.655 76.9257 134.075 77.8092 134.613 78.6388C135.829 80.5242 136.41 82.6361 136.41 84.7263Z" fill="#17B030"/>
<path d="M105.499 47.611C102.749 44.9011 98.2904 44.9011 95.5401 47.611L60.3934 82.2466L46.9298 68.9792C44.1796 66.2696 39.7205 66.2696 36.9708 68.9792C34.2207 71.6895 34.2207 76.0832 36.9708 78.7934L55.4138 96.9679C56.789 98.3227 58.591 99.0004 60.3934 99.0004C62.1958 99.0004 63.9979 98.3227 65.3731 96.9679L105.499 57.4253C108.249 54.7149 108.249 50.3214 105.499 47.611Z" fill="white"/>
</svg>
