<svg width="32" height="32" viewBox="0 0 32 32" fill="none" xmlns="http://www.w3.org/2000/svg">
<path d="M0.854 18.212C0.979 19.5037 1.18683 20.465 1.4775 21.096C1.7695 21.7277 2.29 22.0437 3.039 22.044C3.1795 22.044 3.3065 22.0205 3.4315 21.997C3.5565 22.0205 3.6835 22.044 3.8225 22.044C4.57183 22.044 5.09283 21.728 5.3855 21.096C5.6755 20.465 5.88333 19.5037 6.009 18.212L6.6755 8.2425C6.8005 6.29917 6.863 4.90433 6.863 4.058C6.863 2.906 6.56 2.0075 5.958 1.3625C5.3515 0.718 4.5585 0.395 3.5715 0.395C3.5205 0.395 3.4815 0.4065 3.431 0.4085C3.38 0.4065 3.341 0.395 3.2885 0.395C2.3035 0.395 1.50883 0.717667 0.9045 1.363C-0.00199991 2.331 3.85988e-08 2.906 3.85988e-08 4.058C3.85988e-08 4.904 0.0625 6.29883 0.1875 8.2425L0.854 18.212ZM3.4525 25.685C2.49883 25.685 1.68483 25.9865 1.0105 26.5895C0.3365 27.1942 -0.000166628 27.9262 0.000500039 28.7855C0.000166705 29.7575 0.340833 30.5208 1.0225 31.0755C1.70417 31.6302 2.49933 31.9078 3.408 31.9085C4.33233 31.9085 5.13933 31.6343 5.829 31.086C6.5185 30.5375 6.8625 29.772 6.8625 28.785C6.86217 27.9253 6.5325 27.1932 5.8735 26.5885C5.2155 25.9865 4.40817 25.6853 3.4525 25.685ZM20.62 25.685C19.666 25.685 18.8518 25.9868 18.1775 26.5905C17.5032 27.1942 17.1665 27.9263 17.1675 28.787C17.1675 29.758 17.5082 30.521 18.1895 31.076C18.8722 31.631 19.6677 31.9087 20.576 31.909C21.5 31.909 22.3067 31.6348 22.996 31.0865C23.6853 30.5382 24.0297 29.7715 24.029 28.7865C24.029 27.9258 23.6995 27.1937 23.0405 26.59C22.3815 25.987 21.5765 25.685 20.621 25.685M30.358 4.32C29.481 2.9885 28.2275 1.9235 26.629 1.152C25.0405 0.388 23.1905 0 21.129 0C18.909 0 16.932 0.464 15.2575 1.3805C13.581 2.298 12.286 3.475 11.4075 4.879C10.524 6.29 10.0755 7.7085 10.0755 9.0965C10.0755 9.838 10.3845 10.5295 10.99 11.151C11.5985 11.7755 12.3555 12.092 13.24 12.092C14.75 12.092 15.777 11.2065 16.301 9.47C16.778 8.0335 17.3655 6.938 18.046 6.213C18.6855 5.529 19.723 5.182 21.129 5.182C22.3415 5.182 23.298 5.522 24.0565 6.2225C24.804 6.913 25.1685 7.7375 25.1685 8.7425C25.1728 9.22901 25.0503 9.70826 24.813 10.133C24.5598 10.5854 24.2455 11.0008 23.879 11.3675C23.4905 11.7565 22.8495 12.3415 21.973 13.1085C20.952 14.0035 20.1285 14.787 19.5285 15.4375C18.8908 16.1306 18.3798 16.9302 18.0185 17.8C17.6395 18.6965 17.4465 19.7685 17.4465 20.9825C17.4465 22.02 17.736 22.8235 18.3075 23.37C18.873 23.911 19.5775 24.187 20.402 24.187C21.9785 24.187 22.9695 23.326 23.2645 21.7135C23.4142 21.0438 23.5268 20.5755 23.6025 20.3085C23.671 20.066 23.7695 19.818 23.8965 19.5695C24.0195 19.3285 24.2155 19.054 24.478 18.7545C24.7525 18.439 25.1225 18.068 25.577 17.654C27.2755 16.1345 28.4745 15.0345 29.1395 14.384C29.8255 13.714 30.423 12.908 30.917 11.9895C31.426 11.049 31.6825 9.942 31.6825 8.7C31.6825 7.131 31.2375 5.657 30.36 4.3205" fill="#FF0F0F"/>
</svg>
