<svg width="14" height="14" viewBox="0 0 14 14" fill="none" xmlns="http://www.w3.org/2000/svg">
<g clip-path="url(#clip0_3080_11597)">
<path d="M0.298079 7.41633C0.297753 8.59261 0.605102 9.74115 1.18952 10.7535L0.242188 14.2124L3.78191 13.2842C4.76095 13.8172 5.85789 14.0965 6.97261 14.0966H6.97554C10.6554 14.0966 13.6509 11.1021 13.6525 7.4216C13.6532 5.63812 12.9593 3.96105 11.6985 2.69931C10.438 1.43768 8.76151 0.742513 6.97527 0.741699C3.29495 0.741699 0.299653 3.73596 0.298133 7.41633" fill="url(#paint0_linear_3080_11597)"/>
<path d="M0.058062 7.41405C0.0576822 8.63264 0.376046 9.82226 0.981302 10.8709L0 14.4537L3.66664 13.4923C4.67692 14.0432 5.8144 14.3336 6.97184 14.334H6.97482C10.7867 14.334 13.8898 11.2319 13.8915 7.41958C13.8921 5.57202 13.1732 3.83466 11.8674 2.52772C10.5615 1.22095 8.82505 0.50076 6.97482 0.5C3.16226 0.5 0.0595814 3.60171 0.058062 7.41405ZM2.24163 10.6903L2.10472 10.4729C1.5292 9.55784 1.22543 8.50035 1.22587 7.41448C1.22712 4.24576 3.80594 1.66775 6.97699 1.66775C8.51265 1.6684 9.95584 2.26704 11.0413 3.35318C12.1268 4.43943 12.724 5.88338 12.7237 7.41915C12.7223 10.5879 10.1434 13.1662 6.97482 13.1662H6.97254C5.94083 13.1657 4.92898 12.8886 4.04654 12.365L3.83654 12.2405L1.66068 12.8109L2.24163 10.6902V10.6903Z" fill="url(#paint1_linear_3080_11597)"/>
<path d="M5.24675 4.52334C5.11728 4.23558 4.98102 4.22977 4.8579 4.22472C4.75708 4.22038 4.64182 4.22071 4.52667 4.22071C4.41142 4.22071 4.22415 4.26407 4.06587 4.43689C3.90742 4.60989 3.46094 5.02793 3.46094 5.87819C3.46094 6.7285 4.08025 7.55021 4.16658 7.66563C4.25302 7.78083 5.36217 9.58151 7.11879 10.2742C8.5787 10.8499 8.87579 10.7354 9.19264 10.7066C9.50953 10.6778 10.2152 10.2886 10.3591 9.88507C10.5032 9.48156 10.5032 9.13569 10.46 9.06341C10.4168 8.9914 10.3016 8.94815 10.1287 8.86176C9.95585 8.77532 9.10619 8.35722 8.9478 8.29954C8.78935 8.24191 8.67415 8.21315 8.55889 8.3862C8.44363 8.55897 8.11268 8.94815 8.01181 9.06341C7.91104 9.17893 7.81016 9.19331 7.63739 9.10687C7.46445 9.02016 6.90787 8.83789 6.24753 8.24918C5.73377 7.79109 5.38691 7.22539 5.28609 7.05234C5.18527 6.87957 5.27529 6.78591 5.36195 6.69979C5.4396 6.62236 5.53484 6.49799 5.62133 6.39711C5.7075 6.29618 5.73626 6.22417 5.79389 6.10892C5.85157 5.99355 5.82271 5.89262 5.77957 5.80618C5.73626 5.71974 5.40043 4.86503 5.24675 4.52334Z" fill="white"/>
</g>
<defs>
<linearGradient id="paint0_linear_3080_11597" x1="670.758" y1="1347.81" x2="670.758" y2="0.741699" gradientUnits="userSpaceOnUse">
<stop stop-color="#1FAF38"/>
<stop offset="1" stop-color="#60D669"/>
</linearGradient>
<linearGradient id="paint1_linear_3080_11597" x1="694.574" y1="1395.87" x2="694.574" y2="0.5" gradientUnits="userSpaceOnUse">
<stop stop-color="#F9F9F9"/>
<stop offset="1" stop-color="white"/>
</linearGradient>
<clipPath id="clip0_3080_11597">
<rect width="14" height="13" fill="white" transform="translate(0 0.5)"/>
</clipPath>
</defs>
</svg>
